<svg width="64" height="64" viewBox="0 0 64 64" fill="none" xmlns="http://www.w3.org/2000/svg">
<rect x="2" y="2" width="12" height="12" rx="4" fill="#FFF0EB"/>
<rect x="18" y="2" width="12" height="12" rx="4" fill="#FFF0EB"/>
<rect x="34" y="2" width="12" height="12" rx="4" fill="#FFD2C2"/>
<rect x="50" y="2" width="12" height="12" rx="4" fill="#FFD2C2"/>
<rect x="2" y="18" width="12" height="12" rx="4" fill="#FFF0EB"/>
<rect x="18" y="18" width="12" height="12" rx="4" fill="#FE814B"/>
<rect x="34" y="18" width="12" height="12" rx="4" fill="#FE814B"/>
<rect x="50" y="18" width="12" height="12" rx="4" fill="#FE814B"/>
<rect x="2" y="34" width="12" height="12" rx="4" fill="#FE814B"/>
<rect x="18" y="34" width="12" height="12" rx="4" fill="#FE814B"/>
<rect x="34" y="34" width="12" height="12" rx="4" fill="#FFD2C2"/>
<rect x="50" y="34" width="12" height="12" rx="4" fill="#FFD2C2"/>
<rect x="2" y="50" width="12" height="12" rx="4" fill="#FFF0EB"/>
<rect x="18" y="50" width="12" height="12" rx="4" fill="#FFF0EB"/>
<rect x="34" y="50" width="12" height="12" rx="4" fill="#FFF0EB"/>
<rect x="50" y="50" width="12" height="12" rx="4" fill="#FFF0EB"/>
</svg>
