<svg width="131" height="101" viewBox="0 0 131 101" fill="none" xmlns="http://www.w3.org/2000/svg">
<rect x="1" y="93" width="8" height="8" rx="4" fill="#FEAF8F"/>
<rect x="12" y="85" width="8" height="16" rx="4" fill="#FEAF8F"/>
<rect x="23" y="65" width="8" height="36" rx="4" fill="#FEAF8F"/>
<rect x="34" y="72" width="8" height="29" rx="4" fill="#FFF0EB"/>
<rect x="45" y="49" width="8" height="52" rx="4" fill="#FFF0EB"/>
<rect x="56" y="10" width="8" height="91" rx="4" fill="#FFF0EB"/>
<rect x="67" y="37" width="8" height="64" rx="4" fill="#FFF0EB"/>
<rect x="78" y="60" width="8" height="41" rx="4" fill="#FFF0EB"/>
<rect x="89" y="70" width="8" height="31" rx="4" fill="#FEAF8F"/>
<rect x="100" y="93" width="8" height="8" rx="4" fill="#FEAF8F"/>
<rect x="111" y="93" width="8" height="8" rx="4" fill="#FEAF8F"/>
<rect x="122" y="93" width="8" height="8" rx="4" fill="#FEAF8F"/>
</svg>
