<svg width="160" height="160" viewBox="0 0 160 160" fill="none" xmlns="http://www.w3.org/2000/svg">
<rect width="160" height="160" rx="80" fill="#CBC2FF"/>
<path fill-rule="evenodd" clip-rule="evenodd" d="M101.953 41.9526C104.556 39.3491 108.777 39.3491 111.381 41.9526L131.381 61.9526C133.984 64.5561 133.984 68.7772 131.381 71.3807C128.777 73.9842 124.556 73.9842 121.953 71.3807L101.953 51.3807C99.3491 48.7772 99.3491 44.5561 101.953 41.9526Z" fill="#1C0070"/>
<path fill-rule="evenodd" clip-rule="evenodd" d="M131.381 41.9526C133.984 44.5561 133.984 48.7772 131.381 51.3807L111.381 71.3807C108.777 73.9842 104.556 73.9842 101.953 71.3807C99.3492 68.7772 99.3492 64.5561 101.953 61.9526L121.953 41.9526C124.556 39.3491 128.777 39.3491 131.381 41.9526Z" fill="#1C0070"/>
<path fill-rule="evenodd" clip-rule="evenodd" d="M28.6194 41.9526C31.2229 39.3491 35.444 39.3491 38.0475 41.9526L58.0475 61.9526C60.651 64.5561 60.651 68.7772 58.0475 71.3807C55.444 73.9842 51.2229 73.9842 48.6194 71.3807L28.6194 51.3807C26.0159 48.7772 26.0159 44.5561 28.6194 41.9526Z" fill="#1C0070"/>
<path fill-rule="evenodd" clip-rule="evenodd" d="M58.0474 41.9526C60.6509 44.5561 60.6509 48.7772 58.0474 51.3807L38.0474 71.3807C35.4439 73.9842 31.2228 73.9842 28.6193 71.3807C26.0158 68.7772 26.0158 64.5561 28.6193 61.9526L48.6193 41.9526C51.2228 39.3491 55.4439 39.3491 58.0474 41.9526Z" fill="#1C0070"/>
<path fill-rule="evenodd" clip-rule="evenodd" d="M55.6497 94.9325C62.6354 89.5722 71.1948 86.6667 80.0001 86.6667C88.8055 86.6667 97.3648 89.5722 104.351 94.9326C111.336 100.293 116.358 107.809 118.637 116.314C119.59 119.87 117.48 123.526 113.923 124.479C110.367 125.432 106.711 123.321 105.758 119.765C104.239 114.095 100.891 109.084 96.2338 105.511C91.5766 101.937 85.8704 100 80.0001 100C74.1299 100 68.4237 101.937 63.7665 105.511C59.1093 109.084 55.7614 114.095 54.2421 119.765C53.2892 123.321 49.6336 125.432 46.0771 124.479C42.5207 123.526 40.4101 119.87 41.3631 116.314C43.6421 107.809 48.6639 100.293 55.6497 94.9325Z" fill="#1C0070"/>
</svg>
