<svg width="160" height="160" viewBox="0 0 160 160" fill="none" xmlns="http://www.w3.org/2000/svg">
<rect width="160" height="160" rx="80" fill="#CFD9B5"/>
<path fill-rule="evenodd" clip-rule="evenodd" d="M105.68 54.8557C108.106 53.8506 110.707 53.3333 113.333 53.3333C115.96 53.3333 118.56 53.8506 120.987 54.8557C123.414 55.8608 125.618 57.334 127.475 59.1912C129.333 61.0483 130.806 63.2531 131.811 65.6796C132.816 68.1062 133.333 70.7069 133.333 73.3333C133.333 77.0152 130.349 80 126.667 80C122.985 80 120 77.0152 120 73.3333C120 72.4578 119.828 71.5909 119.493 70.7821C119.158 69.9733 118.666 69.2383 118.047 68.6193C117.428 68.0002 116.693 67.5091 115.885 67.1741C115.076 66.8391 114.209 66.6666 113.333 66.6666C112.458 66.6666 111.591 66.8391 110.782 67.1741C109.973 67.5091 109.238 68.0002 108.619 68.6193C108 69.2383 107.509 69.9733 107.174 70.7821C106.839 71.5909 106.667 72.4578 106.667 73.3333C106.667 77.0152 103.682 80 100 80C96.3181 80 93.3333 77.0152 93.3333 73.3333C93.3333 70.7069 93.8507 68.1062 94.8558 65.6796C95.8608 63.2531 97.334 61.0484 99.1912 59.1912C101.048 57.334 103.253 55.8608 105.68 54.8557Z" fill="#3D4A26"/>
<path fill-rule="evenodd" clip-rule="evenodd" d="M113.923 95.521C117.48 96.4739 119.59 100.13 118.637 103.686C116.358 112.191 111.336 119.707 104.351 125.067C97.3648 130.428 88.8055 133.333 80.0001 133.333C71.1947 133.333 62.6354 130.428 55.6496 125.067C48.6639 119.707 43.6421 112.191 41.3631 103.686C40.4101 100.13 42.5207 96.4739 46.0771 95.521C49.6335 94.568 53.2891 96.6786 54.2421 100.235C55.7614 105.905 59.1093 110.916 63.7665 114.489C68.4236 118.063 74.1299 120 80.0001 120C85.8703 120 91.5766 118.063 96.2337 114.489C100.891 110.916 104.239 105.905 105.758 100.235C106.711 96.6786 110.367 94.568 113.923 95.521Z" fill="#3D4A26"/>
<path fill-rule="evenodd" clip-rule="evenodd" d="M39.013 54.8557C41.4395 53.8506 44.0402 53.3333 46.6667 53.3333C49.2931 53.3333 51.8938 53.8506 54.3203 54.8557C56.7468 55.8608 58.9516 57.334 60.8088 59.1912C62.666 61.0483 64.1392 63.2531 65.1442 65.6796C66.1493 68.1062 66.6667 70.7069 66.6667 73.3333C66.6667 77.0152 63.6819 80 60 80C56.3181 80 53.3333 77.0152 53.3333 73.3333C53.3333 72.4578 53.1609 71.5909 52.8259 70.7821C52.4908 69.9733 51.9998 69.2383 51.3807 68.6193C50.7616 68.0002 50.0267 67.5091 49.2179 67.1741C48.409 66.8391 47.5421 66.6666 46.6667 66.6666C45.7912 66.6666 44.9243 66.8391 44.1154 67.1741C43.3066 67.5091 42.5717 68.0002 41.9526 68.6193C41.3336 69.2383 40.8425 69.9733 40.5075 70.7821C40.1724 71.5909 40 72.4578 40 73.3333C40 77.0152 37.0152 80 33.3333 80C29.6514 80 26.6667 77.0152 26.6667 73.3333C26.6667 70.7069 27.184 68.1062 28.1891 65.6796C29.1942 63.2531 30.6673 61.0484 32.5245 59.1912C34.3817 57.334 36.5865 55.8608 39.013 54.8557Z" fill="#3D4A26"/>
</svg>
