<svg width="375" height="413" viewBox="0 0 375 413" fill="none" xmlns="http://www.w3.org/2000/svg">
<g clip-path="url(#clip0_701_11452)">
<path d="M-35.9222 -242L-34.9297 -242C-34.9297 -241.921 -34.9297 -241.881 -34.9297 -241.801C-35.6046 -220.349 -35.2076 -198.896 -33.8578 -177.562C-28.8159 -97.3928 -10.3555 -18.5341 19.7767 55.8353C34.5054 92.2255 47.4475 128.377 51.4175 167.707C55.3081 206.044 52.2909 244.818 45.1053 282.599C37.7211 321.412 25.9302 359.233 11.9559 396.139C-2.13757 433.244 -18.1366 469.873 -26.95 508.726C-34.5724 542.375 -35.9619 577.137 -26.0369 610.468C-23.8534 617.778 -21.1538 624.929 -17.8587 631.801C-17.819 631.881 -17.819 631.921 -17.7793 632L-18.9703 632C-19.01 631.921 -19.01 631.881 -19.0497 631.801C-24.4886 620.161 -28.3395 607.727 -30.8009 595.252C-37.4704 561.484 -33.302 527.239 -24.3695 494.305C-13.8093 455.571 2.8249 418.943 16.4023 381.281C30.0193 343.54 41.0162 304.727 47.13 264.999C53.3231 224.676 54.3156 183.241 46.9315 142.997C39.587 102.912 22.119 66.3631 7.94617 28.503C-6.62368 -10.39 -16.9059 -51.2296 -24.3298 -92.0693C-31.0391 -129.016 -35.0885 -166.439 -35.9619 -203.981C-36.2795 -216.575 -36.2398 -229.168 -35.8428 -241.801C-35.9222 -241.881 -35.9222 -241.921 -35.9222 -242Z" fill="#F7F4F2"/>
<path d="M-12.4598 -242L-11.4673 -242L-11.4673 -241.801C-11.0306 -203.544 -7.53697 -165.287 -1.10559 -127.546C5.44489 -89.0897 15.3699 -51.3885 27.6768 -14.3627C39.9441 22.4645 53.9581 58.6957 65.4711 95.7613C76.5474 131.476 84.924 167.946 87.7824 205.289C90.5217 241.56 88.5764 278.189 82.1053 313.983C75.7137 349.38 64.9153 383.943 49.75 416.599C34.267 449.97 12.0351 480.162 -0.708558 514.805C-12.0627 545.593 -12.6185 578.567 -1.74075 609.634C0.958838 617.301 4.29362 624.77 8.26361 631.881C8.30331 631.96 8.34301 632 8.38271 632.079L7.19172 632.079C7.15202 632 7.11231 631.96 7.07261 631.881C0.839731 620.559 -3.84485 608.362 -6.86204 595.848C-14.405 564.623 -10.1968 533.476 2.46743 504.158C17.1564 470.231 38.8325 439.919 53.4421 405.872C68.3692 371.151 78.5324 334.482 83.7727 297.059C89.0528 259.597 89.3704 221.339 84.527 183.797C79.4455 144.388 68.2501 106.17 55.5064 68.6674C42.8025 31.284 28.5899 -5.62268 17.3549 -43.4828C6.23889 -80.9456 -1.78049 -119.322 -6.70327 -158.096C-10.2366 -185.865 -12.1422 -213.794 -12.4598 -241.762L-12.4598 -242Z" fill="#F7F4F2"/>
<path d="M72.4187 -242L73.3318 -242C73.3318 -241.921 73.3318 -241.881 73.3318 -241.801C76.9048 -203.822 84.4875 -166.081 93.5391 -129.333C111.92 -54.7257 136.494 18.6506 146.856 95.0462C156.463 165.92 152.493 238.382 135.581 307.865C127.205 342.19 115.692 375.759 101.122 407.938C86.5122 440.117 67.3372 469.674 51.2984 501.099C36.2919 530.497 25.0965 562.517 29.4635 595.928C31.0912 608.362 34.7833 620.797 40.7383 631.801C40.778 631.881 40.8177 631.921 40.8574 632L39.5076 632C39.4679 631.921 39.4282 631.881 39.3885 631.801C31.7264 617.38 28.0343 600.615 27.4785 584.605C26.2875 552.148 39.19 521.439 54.1965 493.352C71.1484 461.649 90.0455 431.298 104.337 398.165C119.026 364.119 130.301 328.563 138.122 292.292C153.962 218.677 154.836 142.798 141.695 68.6672C127.999 -8.6023 101.995 -82.9717 85.48 -159.606C79.6441 -186.62 74.9595 -214.151 72.4187 -241.841C72.4187 -241.881 72.4187 -241.921 72.4187 -242Z" fill="#F7F4F2"/>
<path d="M38.1974 -242L39.1899 -242C39.1899 -241.921 39.2296 -241.881 39.2296 -241.801C44.9067 -208.391 51.8145 -175.139 59.1193 -142.086C75.2771 -69.0672 93.5391 3.59399 104.417 77.6456C114.62 147.049 118.828 218.002 108.982 287.684C104.02 322.922 95.3653 357.683 82.304 390.855C69.2031 424.067 52.0527 455.492 38.8724 488.664C26.8036 518.976 18.546 550.758 20.1737 583.652C20.9677 600.178 24.3025 616.745 30.853 631.801C30.8927 631.881 30.8927 631.921 30.9324 632L29.4635 632C29.4238 631.921 29.4238 631.881 29.3841 631.801C7.98588 583.255 22.3969 524.577 42.3263 477.699C56.777 443.732 74.4037 411.196 86.671 376.315C98.7001 342.19 106.243 306.594 110.134 270.68C118.074 197.543 111.483 123.531 99.2558 51.2667C86.5916 -23.6987 67.4166 -97.353 51.6954 -171.722C46.7726 -194.963 42.2071 -218.323 38.2768 -241.762C38.1974 -241.881 38.1974 -241.921 38.1974 -242Z" fill="#F7F4F2"/>
<path d="M-73.9546 -242L-72.9621 -242C-72.9621 -241.921 -72.9224 -241.881 -72.9224 -241.801C-68.1584 -211.49 -61.211 -181.456 -53.271 -151.899C-35.3266 -85.0773 -12.2213 -19.8054 4.92902 47.2145C21.4442 111.771 32.441 178.712 25.4936 245.454C17.5536 321.968 -15.8737 392.166 -32.627 466.655C-44.6561 520.207 -47.6336 580.792 -25.2826 631.801C-25.2429 631.881 -25.2032 631.921 -25.2032 632L-26.3941 632C-26.4338 631.921 -26.4338 631.881 -26.4735 631.801C-51.6036 574.316 -44.537 506.7 -28.9746 447.586C-9.28352 372.78 22.5161 301.31 26.1685 223.047C29.3841 154.319 15.0525 86.2664 -3.32855 20.4384C-22.0669 -46.7007 -45.2913 -112.529 -61.608 -180.343C-66.491 -200.644 -70.7389 -221.143 -73.9149 -241.801C-73.9149 -241.881 -73.9149 -241.921 -73.9546 -242Z" fill="#F7F4F2"/>
<path d="M137.923 -242L138.837 -242C138.837 -241.921 138.837 -241.881 138.837 -241.801C145.466 -176.49 168.373 -113.919 187.35 -51.4283C197.751 -17.1835 207.2 17.4588 212.559 52.8955C217.601 86.5445 219.149 120.67 217.323 154.637C213.631 222.372 196.52 289.471 166.666 350.373C152.573 379.096 134.509 405.674 121.289 434.833C107.91 464.351 99.8513 496.212 98.5809 528.669C97.4296 557.154 102.074 586.115 110.411 613.328C112.317 619.486 114.421 625.683 116.803 631.841C116.843 631.92 116.843 631.96 116.883 632.04L115.731 632.04C115.692 631.96 115.692 631.92 115.652 631.841C111.205 620.519 107.712 608.799 104.933 597.119C98.2633 569.31 95.6828 540.667 98.8588 512.222C102.273 481.553 111.404 452.274 125.021 424.624C139.392 395.384 157.535 368.29 171.152 338.654C200.689 274.335 216.251 203.7 217.045 132.946C217.442 97.4695 214.108 62.0328 207.001 27.2714C199.736 -8.36396 189.017 -43.1651 178.139 -77.847C161.307 -131.439 143.72 -185.786 137.963 -241.762C137.923 -241.881 137.923 -241.921 137.923 -242Z" fill="#F7F4F2"/>
<path d="M177.266 -242L178.258 -242C178.258 -241.921 178.298 -241.881 178.298 -241.801C184.055 -217.091 190.883 -192.659 198.029 -168.544C219.864 -94.8899 245.192 -21.4739 253.45 55.2792C260.755 123.014 260.04 192.736 248.249 259.914C241.739 297.139 231.734 333.648 219.348 369.323C208.549 400.39 195.488 430.622 185.047 461.808C174.924 491.961 167.301 523.505 168.651 555.525C169.802 582.738 177.861 608.362 190.645 631.801C190.685 631.881 190.724 631.921 190.764 632L189.414 632C189.374 631.921 189.335 631.881 189.295 631.801C189.057 631.364 188.819 630.927 188.58 630.49C173.217 601.887 165.952 570.025 167.738 537.568C169.485 506.422 178.576 476.229 189.097 447.07C200.927 414.255 214.504 382.115 225.104 348.864C236.379 313.546 245.034 277.355 250.314 240.647C255.237 206.322 257.142 171.64 256.825 136.958C256.467 99.8929 254.403 62.6287 248.488 26.0002C235.863 -51.9448 208.152 -126.155 187.429 -202.074C183.816 -215.224 180.442 -228.493 177.345 -241.841C177.306 -241.881 177.266 -241.921 177.266 -242Z" fill="#F7F4F2"/>
<path d="M160.989 -242L161.982 -242C161.982 -241.921 162.021 -241.881 162.021 -241.801C169.604 -209.026 178.179 -176.45 186.715 -143.913C205.493 -72.0865 223.794 0.217159 230.107 74.388C233.243 111.334 233.322 148.638 228.796 185.465C224.31 221.617 214.822 256.577 202.078 290.624C176.551 358.915 140.583 424.028 127.681 496.451C119.701 541.025 121.766 590.286 140.544 631.801C140.583 631.881 140.583 631.921 140.623 632L139.432 632C139.392 631.921 139.353 631.881 139.353 631.801C118.55 585.797 118.629 531.45 129.388 482.586C145.387 409.805 182.745 344.375 206.842 274.335C219.229 238.382 227.089 201.317 229.948 163.377C232.727 125.954 231.099 88.2925 226.732 51.068C217.76 -25.1686 197.235 -99.26 177.981 -173.391C172.065 -196.115 166.309 -218.918 161.029 -241.801C160.989 -241.881 160.989 -241.921 160.989 -242Z" fill="#F7F4F2"/>
<path d="M119.423 -242L120.376 -242C120.376 -241.921 120.416 -241.881 120.416 -241.801C128.515 -200.525 139.194 -159.685 149.754 -119.084C168.413 -47.3364 187.032 25.1262 191.439 99.4559C193.622 135.926 192.273 172.634 185.722 208.626C179.41 243.428 168.334 277.156 155.828 310.169C131.73 373.892 101.717 436.105 89.6484 503.641C82.1451 545.752 81.0732 590.604 92.6656 631.801C92.6656 631.881 92.7053 631.921 92.7053 632L91.4746 632C91.4349 631.921 91.4349 631.881 91.4349 631.801C78.4133 585.479 81.5496 534.907 91.6334 488.306C106.322 420.452 137.804 357.922 161.108 292.888C173.455 258.405 183.459 223.087 188.025 186.657C192.709 149.433 192.114 111.652 188.342 74.3483C180.68 -1.33216 159.957 -74.7482 141.099 -148.204C133.159 -179.191 125.537 -210.377 119.384 -241.801C119.463 -241.881 119.463 -241.921 119.423 -242Z" fill="#F7F4F2"/>
<path d="M223.635 -242L224.707 -242C224.747 -241.921 224.747 -241.881 224.787 -241.801C237.65 -207.398 249.639 -172.716 260.12 -137.478C281.438 -65.7301 296.286 8.24206 298.787 83.2075C300.018 119.915 298.311 156.743 292.872 193.093C287.433 229.682 277.667 265.158 265.717 300.118C243.128 366.185 213.671 431.854 209.423 502.449C206.803 546.547 213.512 593.703 236.181 631.801C236.22 631.881 236.26 631.921 236.3 632L234.99 632C234.95 631.921 234.91 631.881 234.871 631.801C209.899 589.492 204.619 536.655 209.661 488.426C217.006 418.029 247.654 352.757 269.409 286.174C281.2 250.062 289.895 213.195 294.301 175.454C298.668 137.991 299.224 100.131 296.842 62.5095C291.959 -14.2833 274.65 -89.6857 251.306 -162.863C242.811 -189.441 233.521 -215.701 223.755 -241.841C223.715 -241.881 223.675 -241.921 223.635 -242Z" fill="#F7F4F2"/>
<path d="M299.621 -242L300.693 -242C300.733 -241.921 300.733 -241.881 300.772 -241.801C307.164 -224.52 312.921 -207.04 318.042 -189.361C337.177 -123.414 347.658 -54.9243 349.008 13.7244C350.397 85.313 340.988 155.869 323.6 225.232C304.584 301.072 278.779 375.362 265.598 452.631C255.554 511.666 252.775 573.283 266.035 631.801C266.035 631.881 266.075 631.921 266.075 632L264.923 632C264.923 631.921 264.884 631.881 264.884 631.801C250.115 566.768 255.276 498.357 268.06 433.364C283.225 356.452 309.348 282.281 327.133 206.004C343.331 136.442 350.516 65.3302 347.261 -6.05976C344.125 -75.7414 331.579 -145.026 310.142 -211.37C306.846 -221.58 303.313 -231.711 299.581 -241.801C299.661 -241.881 299.621 -241.921 299.621 -242Z" fill="#F7F4F2"/>
<path d="M358.893 -242L359.925 -242C359.925 -241.921 359.965 -241.881 359.965 -241.801C361.632 -233.896 363.22 -225.95 364.689 -217.965C378.703 -143.159 385.095 -66.9617 383.864 9.15576C382.594 85.5115 373.622 161.788 356.749 236.316C348.253 273.779 337.773 310.805 325.347 347.155C311.968 386.207 296.723 424.663 285.925 464.51C271.474 517.943 265.559 579.163 284.734 631.841C284.734 631.92 284.773 631.96 284.813 632.04L283.702 632.04C283.662 631.96 283.662 631.92 283.622 631.841C262.502 573.919 271.752 507.892 289.021 449.89C300.733 410.481 316.097 372.342 328.92 333.291C340.949 296.622 350.953 259.279 358.972 221.538C375.051 145.579 383.031 67.9521 383.031 -9.67493C383.031 -87.3418 375.051 -164.969 359.131 -240.967C359.092 -241.206 359.012 -241.484 358.972 -241.722C358.933 -241.881 358.893 -241.921 358.893 -242Z" fill="#F7F4F2"/>
<path d="M407.605 -242L408.637 -242C408.637 -241.921 408.637 -241.881 408.676 -241.801C419.197 -172.12 423.762 -101.524 423.405 -31.0482C423.008 44.2747 416.934 119.637 404.468 193.927C398.315 230.596 390.573 266.986 381.085 302.939C370.009 344.931 357.106 386.406 346.864 428.636C330.904 494.504 321.535 565.298 336.74 631.841C336.74 631.92 336.78 631.96 336.78 632.04L335.668 632.04C335.668 631.96 335.629 631.92 335.629 631.841C318.796 558.385 331.937 481.275 350.675 409.289C361.434 367.893 374.138 327.053 384.46 285.538C393.392 249.704 400.538 213.394 406.136 176.884C417.807 101.164 423.008 24.4507 422.293 -52.1434C421.698 -115.548 417.093 -179.032 407.605 -241.801C407.644 -241.881 407.644 -241.921 407.605 -242Z" fill="#F7F4F2"/>
<path d="M477 98.2244L477 107.083C476.921 107.64 476.881 108.156 476.801 108.712C470.41 161.43 459.81 213.632 444.962 264.602C434.561 300.317 421.817 335.158 407.724 369.562C393.074 405.396 377.711 441.031 367.071 478.335C353.136 527.279 347.896 583.056 364.292 631.801C364.332 631.881 364.332 631.921 364.371 632L363.26 632C363.22 631.921 363.22 631.881 363.18 631.801C344.799 577.256 353.613 515.798 371.001 461.928C382.911 425.021 398.712 389.584 413.083 353.591C426.621 319.664 438.372 285.101 448.019 249.863C461.477 200.721 471.045 150.545 476.762 99.9326C476.881 99.3764 476.921 98.7805 477 98.2244Z" fill="#F7F4F2"/>
<path d="M434.799 -242L435.831 -242C435.831 -241.921 435.831 -241.881 435.871 -241.801C442.501 -199.929 446.908 -157.659 449.17 -115.31C452.783 -47.1774 450.798 21.2726 443.176 89.0474C435.593 156.345 422.333 222.849 403.873 288.002C385.055 354.346 362.029 419.856 351.032 488.148C343.41 535.502 341.663 584.725 351.072 631.801C351.072 631.881 351.112 631.921 351.112 632L349.961 632C349.961 631.921 349.921 631.881 349.921 631.801C339.361 578.845 342.973 523.425 353.057 470.628C366.118 402.376 389.74 336.787 407.803 269.806C425.748 203.422 437.935 135.489 444.406 67.0384C450.838 -0.895207 451.592 -69.3453 446.749 -137.398C444.248 -172.358 440.278 -207.199 434.799 -241.801C434.839 -241.881 434.839 -241.921 434.799 -242Z" fill="#F7F4F2"/>
<path d="M389.144 -242L390.176 -242C390.176 -241.921 390.216 -241.881 390.216 -241.801C398.712 -192.738 404.071 -143.159 406.374 -93.4598C409.351 -28.0687 407.009 37.5608 399.347 102.555C391.725 166.953 378.862 230.715 360.799 292.967C342.457 356.134 319.233 418.228 308.395 483.341C300.256 532.285 299.383 583.851 312.881 631.722C312.881 631.801 312.921 631.841 312.921 631.921L311.809 631.921C311.809 631.841 311.769 631.801 311.769 631.722C297.041 579.361 299.581 522.988 309.784 469.992C322.409 404.442 346.348 341.872 364.094 277.672C381.641 214.109 393.789 149.075 400.459 83.4457C407.089 18.3328 408.399 -47.3364 404.389 -112.688C401.689 -155.99 396.648 -199.134 389.263 -241.881C389.144 -241.881 389.144 -241.921 389.144 -242Z" fill="#F7F4F2"/>
<path d="M477 283.949L477 286.969C476.921 287.167 476.881 287.326 476.802 287.525C468.981 309.454 459.77 330.867 449.528 351.883C431.107 389.624 410.463 426.411 395.377 465.741C381.165 502.807 371.676 542.693 375.249 582.619C376.758 599.384 380.49 616.109 386.762 631.801C386.802 631.881 386.802 631.921 386.842 632L385.69 632C385.651 631.921 385.651 631.881 385.611 631.801C378.266 613.288 374.416 593.226 373.622 573.442C371.994 533.397 382.792 493.868 397.68 457.081C413.48 418.069 434.323 381.4 452.426 343.461C461.596 324.233 469.775 304.608 476.762 284.585C476.881 284.347 476.921 284.148 477 283.949Z" fill="#F7F4F2"/>
</g>
<defs>
<clipPath id="clip0_701_11452">
<rect width="874" height="582" fill="white" transform="translate(-105 632) rotate(-90)"/>
</clipPath>
</defs>
</svg>
