<svg width="368" height="418" viewBox="0 0 368 418" fill="none" xmlns="http://www.w3.org/2000/svg">
<path d="M167.574 62.8832C164.982 52.9078 155.839 46.0824 146.608 41.5031C141.716 39.0821 136.504 37.0112 131.059 36.982C125.614 36.9237 119.878 39.2571 117.053 43.924C115.393 39.2571 109.395 37.4779 104.561 38.5279C97.7475 39.9863 91.9529 44.9449 85.5468 47.57C78.2672 50.5452 70.6672 52.4994 63.4458 55.6496C11.5275 78.3715 -22.1336 144.583 17.1182 188.802C32.4055 206.04 60.7087 215.432 82.402 219.428C101.125 222.87 96.8448 227.42 115.015 225.903C133.214 224.357 150.627 216.278 159.654 204.261C163.73 198.835 165.972 192.477 167.079 185.885C167.719 182.005 167.981 177.951 166.671 173.926C163.235 163.134 151.064 152.662 137.902 148.666C130.069 146.304 121.887 143.62 113.588 143.766C106.046 143.883 81.0043 148.929 77.3354 139.303C73.7829 129.97 91.982 117.748 97.4272 112.381C112.103 98.0015 145.152 85.8385 137.407 81.5216L167.574 62.8832Z" fill="#FEAF8F"/>
<path d="M137.436 139.216C126.72 138.983 115.801 138.603 105.755 134.811C95.7092 131.049 86.5077 123.261 83.625 112.702C79.6066 97.9139 88.8372 82.6591 99.9896 72.3919C115.073 58.4496 133.942 49.67 152.49 41.1238C177.736 29.4566 202.982 17.7894 228.228 6.15134C236.876 2.15532 246.543 -1.9282 255.599 0.988598C266.14 4.40126 272.051 16.7393 271.41 28.0274C270.799 39.3154 265.034 49.6409 258.598 58.8288C235.187 92.4304 200.419 117.544 161.634 128.92L137.436 139.216Z" fill="#FFCE5C"/>
<path d="M145.444 111.769C137.203 108.502 131.903 101.326 131.758 93.7719C131.7 91.0593 132.253 88.3466 133.272 85.7215C136.737 76.5919 145.851 68.6874 156.974 65.3039C168.127 61.9204 180.997 63.1746 190.024 68.6874C195.032 71.75 198.905 75.9794 204.409 78.4587C212.882 82.3088 223.656 81.3755 233.527 79.6546C249.601 76.8544 265.528 72.1875 281.747 72.1584C297.967 72.1584 315.263 78.342 319.776 90.6217C320.533 92.6927 320.912 94.9386 320.388 97.1554C319.776 99.6055 318.058 101.881 317.622 104.36C316.748 109.085 320.737 113.431 325.775 115.59C330.812 117.777 336.782 118.273 342.576 118.915C353.874 120.198 365.23 122.24 374.81 126.936C384.39 131.632 392.078 139.303 393.388 148.433C394.727 157.562 388.525 167.946 377.693 171.68C368.23 174.946 357.572 172.759 348.749 169.288C341.906 166.575 335.442 163.046 327.871 161.821C320.3 160.596 310.982 162.433 306.935 168.005C302.072 174.742 306.76 183.872 301.111 190.231C298.578 193.06 294.472 194.722 290.396 195.802C265.791 202.423 239.642 192.622 222.433 178.33C216.143 173.109 210.349 167.129 201.904 164.329C193.722 161.617 184.259 162.346 175.29 161.617C165.681 160.829 156.421 158.262 148.443 154.208C140.552 150.183 153.597 147.704 153.626 139.974C153.655 134.345 151.937 130.378 155.577 125.39L145.444 111.769Z" fill="#4B3425"/>
<path d="M191.276 156.483C179.571 153.829 165.623 151.496 155.111 149.921C151.704 149.425 148.239 148.958 144.774 148.812C119.82 173.313 81.5869 205.282 105.144 237.891C114.2 250.317 132.137 240.167 140.203 227.624C155.548 202.481 167.923 175.501 191.276 156.483Z" fill="white"/>
<path d="M165.099 236.724C164.895 248.362 175.611 259.388 189.005 257.405C198.061 256.384 205.661 251.046 211.514 244.279C213.989 230.891 216.61 217.532 218.328 204.144C220.22 189.239 224.705 171.796 212.184 163.454C209.767 161.85 207.059 160.713 204.292 159.808C194.334 168.734 185.802 179.322 178.29 191.135C169.379 204.406 164.924 220.361 165.099 236.724Z" fill="#FEAF8F"/>
<path d="M215.794 377.344C213.581 369.702 184.463 336.654 180.415 329.829C156.683 289.548 204.671 281.381 211.514 244.279C205.661 251.046 198.09 256.355 189.005 257.405C175.64 259.388 164.895 248.363 165.099 236.725C164.924 220.361 169.379 204.407 178.26 191.164C185.802 179.38 194.334 168.763 204.263 159.838C202.662 159.313 201.031 158.875 199.43 158.438C196.896 157.767 194.159 157.096 191.276 156.483C167.923 175.501 155.548 202.481 140.202 227.624C132.166 240.167 114.2 250.317 105.144 237.891C81.5576 205.282 119.79 173.313 144.774 148.812C140.93 148.637 139.853 148.841 136.126 149.746C124.973 152.458 113.821 165.526 97.7766 182.618C86.9737 194.139 84.4695 200.031 74.6856 212.428C46.528 248.188 81.6741 270.589 81.6741 270.589C76.6657 315.77 55.0306 341.875 53.6912 351.559C60.9708 390.207 69.6481 423.983 103.629 445.159C102.727 422.467 121.188 401.67 137.494 385.336C156.538 365.356 189.18 362.643 211.863 376.265C213.348 377.227 214.833 378.16 216.318 379.094C216.144 378.54 215.94 377.956 215.794 377.344Z" fill="white"/>
<path d="M124.973 377.84C114.054 388.049 94.5445 396.595 101.941 427.921C67.6681 398.491 60.9708 390.207 53.7203 351.559C51.6238 366.698 13.6241 423.4 47.1687 512.304L225.374 541.997C244.476 502.591 246.398 419.55 216.318 379.123C214.833 378.19 213.348 377.227 211.863 376.294C189.209 362.672 155.926 348.905 124.973 377.84Z" fill="#FEAF8F"/>
<path d="M167.37 234.158C172.757 201.14 188.044 162.959 221.967 154.704C231.14 152.458 240.749 152.983 250.009 154.733C291.968 162.58 328.337 196.327 342.751 239.146C345.867 248.421 348.051 258.163 348.225 268.051C348.4 279.047 346.1 289.986 342.373 300.253C338.354 311.307 332.734 321.691 325.717 330.908C317.127 342.196 306.557 351.618 295.812 360.543C283.728 370.548 270.945 380.173 256.298 384.665C241.652 389.157 224.617 387.698 213.057 377.198C206.156 370.927 206.535 359.61 201.119 351.851C195.673 344.092 192.034 334.904 174.883 336.158C168.215 336.654 161.255 341.584 154.674 342.721C151.559 343.275 149.288 339.688 150.918 336.8C154.209 330.937 160.498 326.825 166.817 324.754C173.019 322.741 179.804 323.179 186.297 322.42C189.209 322.07 189.326 317.549 186.414 317.17C181.842 316.587 176.368 317.783 173.864 317.928C163.672 318.512 154.937 323.004 144.92 326.008C142.619 326.708 140.057 325.658 138.98 323.383C137.145 319.591 140.872 316.528 144.075 314.953C155.14 309.47 170.835 303.986 185.365 303.84C187.083 303.811 187.899 301.624 187.462 300.048C186.85 297.919 182.628 298.444 181.085 298.211C175.523 297.365 169.321 297.832 163.818 299.086C158.023 300.398 152.112 302.44 146.288 302.965C142.27 303.344 140.377 297.803 143.639 295.236C150.278 289.986 159.304 287.74 167.661 286.223C177.037 284.531 186.676 283.131 195.935 285.319C205.195 287.506 214.076 293.894 217.076 303.519C230.004 293.982 243.981 283.889 253.969 270.939C255.017 269.568 256.123 268.051 256.211 266.272C256.327 264.172 253.124 259.213 251.843 257.638C233.557 234.77 200.594 228.353 174.533 240.108L167.37 234.158Z" fill="#FEAF8F"/>
<path d="M222.317 155.988C248.494 150.066 277.584 162.346 298.054 178.243C318.146 193.877 333.229 215.432 341.47 239.466C342.023 241.071 344.586 240.4 344.032 238.766C335.501 213.886 319.922 191.689 299.044 175.647C277.991 159.488 248.407 147.383 221.618 153.421C219.929 153.771 220.657 156.367 222.317 155.988Z" fill="#4B3425"/>
<path d="M135.981 159.838L149.666 81.9009C149.666 81.9009 185.54 101.152 183.851 131.807L167.516 128.599C167.516 128.599 171.68 143.416 175.756 157.971C179.571 171.593 168.506 184.806 154.442 183.464C154.267 183.435 154.063 183.435 153.888 183.406C142.183 182.239 133.942 171.418 135.981 159.838Z" fill="#FEAF8F"/>
<path d="M133.098 115.24C136.388 118.653 141.833 118.74 145.24 115.444C148.647 112.148 148.734 106.694 145.444 103.281C142.153 99.8683 136.708 99.7808 133.301 103.077C129.894 106.373 129.807 111.827 133.098 115.24Z" fill="#FEAF8F"/>
<path d="M143.609 109.786C140.814 108.356 137.989 106.927 135.165 105.556C133.622 104.798 132.282 107.102 133.825 107.861C136.65 109.231 139.474 110.661 142.27 112.09C143.784 112.848 145.153 110.544 143.609 109.786Z" fill="#4B3425"/>
<path d="M167.516 128.599L175.756 158.613L155.635 125.361L167.516 128.599Z" fill="#4B3425"/>
<path d="M177.125 113.752C177.125 113.752 166.031 113.432 157.15 111.506C157.15 111.506 170.69 125.128 180.386 124.457L177.125 113.752Z" fill="white"/>
<path d="M177.125 112.411C170.544 112.206 163.963 111.536 157.499 110.223C156.247 109.961 155.199 111.477 156.189 112.44C162.333 118.565 171.214 126.003 180.357 125.799C182.075 125.77 182.075 123.086 180.357 123.144C172 123.349 163.672 116.173 158.081 110.573C157.645 111.302 157.208 112.061 156.771 112.79C163.439 114.161 170.282 114.861 177.096 115.065C178.843 115.152 178.843 112.469 177.125 112.411Z" fill="#FE814B"/>
<path d="M165.303 95.9015C169.67 99.0516 174.038 102.698 177.736 106.606C177.94 105.877 178.115 105.119 178.319 104.389C176.164 104.739 173.98 105.089 171.825 105.469C170.136 105.76 170.864 108.327 172.524 108.035C174.679 107.685 176.863 107.335 179.018 106.956C180.066 106.781 180.241 105.381 179.6 104.739C175.756 100.627 171.214 96.8932 166.642 93.5972C165.274 92.5763 163.934 94.9098 165.303 95.9015Z" fill="#4B3425"/>
<path d="M125.381 62.9122C114.782 24.4979 156.858 17.6142 174.3 39.2277L125.381 62.9122Z" fill="#FFCE5C"/>
<path d="M128.73 54.0454C140.552 48.0952 152.869 43.3116 165.623 39.6656C167.283 39.1989 166.555 36.6321 164.924 37.0988C151.966 40.774 139.445 45.6742 127.39 51.7412C125.847 52.4995 127.187 54.8038 128.73 54.0454Z" fill="#4B3425"/>
<path d="M91.458 272.981C98.6503 275.431 105.988 276.364 113.559 275.752C115.248 275.606 115.277 272.951 113.559 273.097C106.221 273.681 99.1162 272.806 92.1568 270.414C90.5262 269.86 89.8565 272.426 91.458 272.981Z" fill="#4B3425"/>
<path d="M127.914 160.655C126.546 168.705 129.079 176.609 134.99 182.239C136.242 183.406 138.135 181.539 136.883 180.343C131.671 175.384 129.254 168.472 130.477 161.355C130.768 159.692 128.206 158.963 127.914 160.655Z" fill="#4B3425"/>
<path d="M143.173 187.985C153.422 195.423 168.302 193.76 176.717 184.31C177.853 183.026 175.989 181.13 174.824 182.414C167.137 191.077 153.859 192.477 144.512 185.68C143.143 184.66 141.804 186.993 143.173 187.985Z" fill="#4B3425"/>
<path d="M115.772 334.758C107.997 332.6 99.7276 330.879 91.72 332.892C87.2649 334.029 77.8013 338.083 77.9178 343.859C78.0343 349.605 89.4488 349.459 93.0886 348.963C101.358 347.796 108.318 342.925 114.957 338.2C116.354 337.208 115.015 334.904 113.617 335.896C108.783 339.338 103.862 342.925 98.2134 344.938C95.6801 345.842 93.0012 346.455 90.2932 346.542C88.5461 346.6 86.799 346.484 85.1101 346.075C84.6733 345.959 84.2074 345.842 83.7706 345.696C81.6159 345.667 80.9461 344.792 81.7906 343.071C82.3147 337.471 92.2441 335.108 96.7866 334.758C102.989 334.262 109.133 335.692 115.073 337.354C116.733 337.763 117.432 335.196 115.772 334.758Z" fill="#B4C48D"/>
<path d="M160.731 87.4428C167.166 72.888 177.328 58.6248 193.111 53.4913C208.951 48.3285 224.442 55.0663 238.274 62.65C254.056 71.2838 269.401 79.8883 288.008 78.9258C296.685 78.4591 305.275 76.3298 313.05 72.4796C318.379 69.8253 328.25 64.7209 327.522 57.4289C326.736 49.4952 314.768 50.3411 309.498 52.2954C307.139 53.1704 304.897 54.9205 305.188 57.6915C305.479 60.3749 307.809 61.9208 310.342 61.3666C312.002 60.9874 311.303 58.4207 309.643 58.7998C309.556 57.6331 309.468 56.4372 309.381 55.2705C310.08 55.0372 310.779 54.7746 311.448 54.5413C312.555 54.2496 313.749 54.1038 314.884 53.9871C316.719 53.7829 318.815 53.6079 320.65 54.0454C329.531 56.1455 321.582 64.2543 317.709 66.7919C311.186 71.1087 303.732 73.9672 296.074 75.3673C279.447 78.4299 264.335 73.8505 249.775 66.0043C237.575 59.4415 225.461 51.4787 211.455 49.4661C202.341 48.1535 193.227 49.6994 185.103 54.1038C172.466 60.9291 164.079 73.2963 158.401 86.1594C157.732 87.647 160.032 89.0179 160.731 87.4428Z" fill="#4B3425"/>
<path d="M163.701 95.2891C164.895 100.073 159.799 105.498 152.316 107.365C144.832 109.231 137.786 106.869 136.592 102.085C135.398 97.3017 140.494 91.8764 147.977 90.0097C155.46 88.1137 162.507 90.4764 163.701 95.2891Z" fill="#4B3425"/>
<path d="M162.216 95.6973C163.905 105.702 140.581 111.477 138.106 101.677C135.602 91.9055 158.984 86.1011 162.216 95.6973C162.857 97.5933 165.856 96.7766 165.215 94.8806C160.702 81.4342 131.525 88.697 135.107 102.523C138.717 116.348 167.574 108.881 165.215 94.8806C164.866 92.8972 161.866 93.7431 162.216 95.6973Z" fill="white"/>
<path d="M198.148 86.6256C199.342 91.4092 194.246 96.8344 186.763 98.7012C179.279 100.568 172.233 98.2053 171.039 93.4218C169.845 88.6382 174.941 83.2129 182.424 81.3462C189.908 79.4794 196.954 81.8421 198.148 86.6256Z" fill="#4B3425"/>
<path d="M196.663 87.0343C198.352 97.0389 175.028 102.814 172.553 93.0137C170.049 83.2424 193.431 77.438 196.663 87.0343C197.304 88.9302 200.303 88.1135 199.662 86.2176C195.149 72.7711 165.972 80.0339 169.554 93.8596C173.165 107.685 202.021 100.218 199.662 86.2176C199.313 84.2341 196.314 85.08 196.663 87.0343Z" fill="white"/>
<path d="M165.332 97.5641C167.195 97.0682 169.059 96.5723 170.893 96.0765C172.815 95.5515 172 92.5472 170.078 93.0722C168.214 93.568 166.351 94.0639 164.516 94.5598C162.565 95.0848 163.381 98.0891 165.332 97.5641Z" fill="white"/>
<path d="M81.6743 287.04C69.1533 319.854 48.4792 351.851 33.4831 369.352C18.4871 386.853 2.0642 406.454 2.87952 429.555C8.93617 420.688 22.2142 421.388 32.2601 425.092C42.2769 428.796 52.4393 434.601 62.9511 432.676C68.6583 431.626 73.8414 428.359 79.6069 427.6C92.0114 425.996 104.183 436.351 116.267 433.055C123.401 431.101 129.079 424.625 136.475 424.334C144.163 424.042 150.511 430.576 158.081 431.801C171.447 433.959 184.463 419.375 197.1 424.217C201.526 425.909 205.05 429.876 209.738 430.634C218.182 431.976 224.297 422.788 232.246 419.608C243.981 414.854 259.152 423.604 269.256 415.904C258.977 416.021 250.212 408.058 245.029 399.132C239.846 390.178 234.256 379.648 228.781 370.839C211.572 343.042 173.893 315.77 151.588 346.163L81.6743 287.04Z" fill="white"/>
<path d="M61.8446 103.135C72.4147 101.764 81.092 93.8013 82.9556 83.2133C83.2468 81.5216 80.6843 80.8215 80.3931 82.5133C78.7334 91.8179 71.279 99.2557 61.8446 100.481C60.1849 100.685 60.1558 103.368 61.8446 103.135Z" fill="#4B3425"/>
<path d="M116.645 44.7989C119.586 46.5781 121.828 49.2032 123.081 52.4117C123.692 53.9868 126.284 53.3159 125.643 51.7117C124.158 47.8323 121.537 44.653 117.985 42.4946C116.529 41.5904 115.189 43.8946 116.645 44.7989Z" fill="#4B3425"/>
<path d="M100.892 54.7162C103.28 57.1663 105.697 59.5872 108.085 62.0373C109.278 63.2624 111.171 61.3665 109.977 60.1414C107.59 57.6913 105.173 55.2703 102.785 52.8202C101.562 51.5952 99.6693 53.4911 100.892 54.7162Z" fill="#4B3425"/>
<path d="M54.0698 114.657C54.1281 112.877 54.7396 111.331 55.7878 109.902C56.807 108.531 54.5066 107.19 53.4875 108.561C52.1771 110.34 51.4783 112.44 51.4201 114.657C51.3327 116.378 54.0116 116.378 54.0698 114.657Z" fill="#4B3425"/>
<path d="M58.3795 117.106C59.6316 115.006 60.9128 112.935 62.1649 110.835C63.0675 109.377 60.7381 108.035 59.8645 109.494C58.6124 111.594 57.3312 113.665 56.0791 115.765C55.2055 117.223 57.5059 118.565 58.3795 117.106Z" fill="#4B3425"/>
<path d="M205.952 30.8864C215.445 34.3283 224.588 38.4993 233.44 43.3412C234.954 44.1579 236.293 41.8536 234.779 41.0369C225.723 36.0783 216.347 31.849 206.651 28.3197C205.049 27.7363 204.35 30.3031 205.952 30.8864Z" fill="#FFEBC2"/>
<path d="M213.697 22.0484C224.471 27.3861 235.274 32.7239 246.048 38.0908C247.591 38.8492 248.931 36.5449 247.387 35.7865C236.614 30.4488 225.811 25.111 215.037 19.7441C213.523 18.9858 212.154 21.29 213.697 22.0484Z" fill="#FFEBC2"/>
<path d="M227.587 17.7023C236.381 21.3774 244.738 25.9276 252.658 31.2946C254.085 32.2571 255.424 29.9528 253.997 28.9903C245.873 23.5067 237.312 18.8981 228.286 15.1355C226.713 14.4646 226.014 17.0314 227.587 17.7023Z" fill="#FFEBC2"/>
<path d="M198.41 41.0074C213.989 33.3071 229.975 26.5109 246.339 20.6482C247.941 20.0648 247.242 17.498 245.64 18.0814C229.072 24.0316 212.853 30.9153 197.071 38.7032C195.527 39.4615 196.867 41.7658 198.41 41.0074Z" fill="#FFEBC2"/>
<path d="M220.395 47.7746C233.644 37.7116 247.824 29.1362 262.879 22.0775C264.422 21.3483 263.083 19.0441 261.539 19.7733C246.485 26.8319 232.304 35.4073 219.055 45.4703C217.716 46.4912 219.026 48.7955 220.395 47.7746Z" fill="#FFEBC2"/>
<path d="M98.1262 108.298C103.513 103.397 108.9 98.4972 114.287 93.5678C115.568 92.4011 113.675 90.5343 112.394 91.6719C107.007 96.5721 101.62 101.472 96.2334 106.402C94.9813 107.568 96.8741 109.464 98.1262 108.298Z" fill="#FFEBC2"/>
<path d="M101.562 116.261C107.648 109.931 114.083 103.952 120.868 98.3515C122.178 97.2723 120.285 95.3764 118.975 96.4556C112.19 102.056 105.755 108.035 99.6695 114.365C98.4757 115.619 100.368 117.515 101.562 116.261Z" fill="#FFEBC2"/>
<path d="M90.9921 100.656C101.533 105.906 112.19 110.894 122.935 115.648C124.478 116.348 125.847 114.044 124.275 113.344C113.501 108.589 102.873 103.602 92.3316 98.3513C90.8174 97.5929 89.4489 99.868 90.9921 100.656Z" fill="#FFEBC2"/>
<path d="M103.193 94.3554C109.715 96.1347 115.656 99.0223 121.13 103.018C122.528 104.039 123.838 101.706 122.469 100.714C116.82 96.6013 110.618 93.6262 103.892 91.7886C102.232 91.3219 101.533 93.8887 103.193 94.3554Z" fill="#FFEBC2"/>
<path d="M125.352 350.743C123.401 344.238 118.538 338.638 112.365 335.779C106.192 332.921 98.7958 332.833 92.5645 335.575C100.543 345.026 113.122 350.422 125.439 349.663L125.352 350.743Z" fill="#B4C48D"/>
<path d="M116.908 363.139C110.21 357.51 100.019 359.347 92.0114 362.847C87.7892 364.685 83.1302 367.923 83.4214 372.531C88.4589 374.66 94.2827 374.106 99.4075 372.21C104.532 370.314 109.075 367.164 113.559 364.043C108.813 371.277 109.599 381.661 115.364 388.107C120.577 381.311 121.188 371.306 116.85 363.927L116.908 363.139Z" fill="#B4C48D"/>
<path d="M201.643 227.099C197.042 224.386 194.974 218.611 195.178 213.273C195.382 207.936 197.508 202.89 199.575 197.96C206.447 205.077 207.554 217.036 202.138 225.32L201.643 227.099Z" fill="#B4C48D"/>
<path d="M240.021 329.275C245.32 331.083 248.902 326.154 250.998 322.099C251.785 320.583 249.484 319.241 248.698 320.758C247.155 323.733 244.767 328.108 240.72 326.708C239.118 326.154 238.419 328.721 240.021 329.275Z" fill="#4B3425"/>
<path d="M245.67 305.095C250.678 308.274 256.706 305.095 257.404 299.349C257.608 297.657 254.959 297.657 254.726 299.349C254.26 303.199 250.096 304.774 246.98 302.79C245.582 301.886 244.243 304.191 245.67 305.095Z" fill="#4B3425"/>
<path d="M253.357 347.272C258.307 347.564 262.18 342.78 261.364 338.026C261.073 336.334 258.511 337.063 258.802 338.726C259.355 341.876 256.443 344.764 253.386 344.589C251.639 344.501 251.639 347.155 253.357 347.272Z" fill="#4B3425"/>
<path d="M308.042 307.632C308.682 309.353 308.915 311.133 308.624 312.941C308.362 314.633 310.925 315.333 311.187 313.641C311.565 311.337 311.42 309.091 310.604 306.903C309.993 305.328 307.43 306.028 308.042 307.632Z" fill="white"/>
<path d="M308.595 323.792C309.294 326.3 309.439 328.838 308.973 331.404C308.682 333.096 311.245 333.796 311.536 332.104C312.089 329.071 312.002 326.038 311.157 323.062C310.721 321.429 308.129 322.129 308.595 323.792Z" fill="white"/>
<path d="M310.342 345.609C310.488 348.468 310.633 351.326 310.779 354.185C310.866 355.905 313.545 355.905 313.458 354.185C313.312 351.326 313.166 348.468 313.021 345.609C312.904 343.917 310.255 343.888 310.342 345.609Z" fill="white"/>
<path d="M301.781 367.106C305.421 379.94 310.226 394.174 323.999 399.016C325.629 399.599 326.328 397.003 324.698 396.449C311.915 391.957 307.663 378.19 304.315 366.406C303.878 364.744 301.286 365.444 301.781 367.106Z" fill="#4B3425"/>
<path d="M172.087 275.956C165.332 265.806 163.09 252.767 166.089 240.954C166.438 239.613 166.962 238.125 168.185 237.483C169.408 236.871 170.864 237.279 172.146 237.804C178.522 240.313 184.259 244.455 188.627 249.763C187.957 244.571 191.131 239.117 195.994 237.163C200.856 235.208 206.913 236.958 210 241.188C210.728 236.754 214.629 233.05 219.085 232.554C223.54 232.058 228.17 234.829 229.829 239C235.857 225.583 250.445 216.512 265.121 217.037C266.053 222.345 265.237 227.946 262.821 232.758C266.926 230.95 270.566 228.033 273.187 224.387C274.963 231.446 276.157 238.65 276.71 245.913C281.253 242.18 286.086 238.3 291.881 237.25C297.676 236.2 304.635 239.088 305.974 244.834C307.459 251.134 301.898 256.705 296.889 260.818C298.549 259.418 300.587 258.455 302.713 258.047C307.43 260.789 308.333 268.314 304.402 272.106C307.518 270.064 311.478 268.547 314.943 269.918C318.408 271.318 319.922 276.831 316.748 278.815C323.154 269.772 339.694 274.323 342.635 285.027C345.546 295.732 336.782 307.195 325.979 309.733C331.977 306.291 340.829 310.899 341.441 317.812C342.052 324.696 334.132 330.821 327.609 328.459C338.878 336.713 347.177 348.993 350.613 362.527C342.664 358.677 334.074 356.168 325.309 355.089C328.104 363.548 334.016 370.956 341.674 375.565C333.841 375.186 326.037 374.807 318.204 374.427C322.776 387.349 322.077 402.049 316.282 414.475C309.439 408.175 303.965 400.416 300.384 391.841C303.47 402.749 299.161 415.379 290.046 422.088C286.611 414.592 283.175 407.125 279.709 399.628C277.991 406.22 269.314 409.808 263.432 406.366C265.5 410.858 260.025 415.875 255.104 415.35C250.183 414.796 246.369 410.917 243.137 407.154C242.35 412.521 237.022 416.779 231.635 416.4C226.248 415.992 221.589 410.975 221.618 405.55C211.514 413.629 197.945 417.188 185.161 415.117C185.453 406.016 188.889 397.062 194.712 390.091C190.781 396.42 180.998 398.812 175.436 393.824C169.874 388.865 172.524 377.49 179.949 376.644C174.621 378.278 168.418 379.211 163.818 376.061C159.217 372.911 158.955 364.219 164.313 362.702C159.799 365.531 153.044 363.606 150.685 358.822C148.327 354.039 150.918 347.505 155.897 345.638C142.008 345.201 129.312 333.68 127.536 319.883C135.718 317.9 143.93 315.916 152.112 313.933C147.686 315.479 143.027 309.762 144.861 305.474C146.725 301.157 153.16 300.107 156.771 303.111C146.871 293.224 143.435 277.414 148.327 264.318C157.79 265.718 166.759 270.152 173.631 276.831L172.087 275.956Z" fill="#9BB068"/>
<path d="M162.624 358.501C172.873 353.63 182.948 348.438 192.878 342.955C194.392 342.138 193.023 339.834 191.538 340.651C181.609 346.134 171.534 351.326 161.284 356.197C159.741 356.955 161.08 359.231 162.624 358.501Z" fill="#4B3425"/>
<path d="M186.675 288.702C181.929 299.377 184.288 311.89 192.79 319.941C193.227 320.349 193.897 320.466 194.392 320.145C205.049 313.524 212.736 303.344 216.085 291.239C216.551 289.577 213.989 288.877 213.523 290.539C210.349 301.973 203.127 311.599 193.052 317.841C193.576 317.899 194.13 317.987 194.654 318.045C187.083 310.899 184.666 299.611 188.947 290.044C189.675 288.498 187.374 287.156 186.675 288.702Z" fill="#4B3425"/>
<path d="M232.188 295.556C191.276 281.526 156.567 287.652 134.437 298.94C153.277 307.457 173.223 313.67 193.635 317.432C170.02 323.091 148.472 335.633 132.661 352.959C127.769 358.326 123.255 364.451 122.149 371.51C151.5 370.489 180.444 363.693 206.622 351.646C193.548 368.126 189.762 390.877 196.751 410.77C215.823 398.899 231.343 382.039 241.156 362.497C239.992 369.293 244.127 376.002 248.931 381.281C260.375 393.794 276.914 402.078 294.181 403.915C297.151 386.59 290.716 367.835 277.438 355.176C288.998 365.676 301.869 376.76 317.68 378.248C315.38 363.576 302.422 350.742 286.989 347.884C313.108 353.396 340.684 358.093 365.9 350.567C362.697 342.721 354.107 338.112 345.896 334.875C324.756 326.533 301.694 322.828 279.069 324.17C288.765 319.562 299.626 317.549 309.731 313.757C319.835 309.965 329.706 303.752 333.491 294.127C333.753 293.485 333.957 292.785 333.783 292.114C333.52 291.123 332.443 290.51 331.453 290.044C310.167 279.951 283.233 281.993 264.48 295.148C261.627 276.101 246.019 259.067 226.452 253.583C225.316 263.617 225.316 263.617 224.209 273.651C223.685 278.435 227.966 292.698 232.188 295.556Z" fill="#B4C48D"/>
<path d="M190.723 263.676C177.358 260.613 162.449 266.067 154.208 277.005C166.613 282.547 181.609 281.876 193.431 275.226C185.365 286.952 186.239 304.073 195.44 314.924C202.137 310.14 208.747 304.919 213.377 298.094C218.007 291.269 220.424 282.518 218.007 274.614C229.829 270.734 238.186 258.221 237.225 245.796C224.763 244.104 211.659 252.213 207.641 264.142L190.723 263.676Z" fill="#B4C48D"/>
<path d="M268.295 254.342C265.383 252.446 262.995 249.792 261.364 246.729C256.181 236.987 259.734 224.357 267.217 216.249C275.37 222.695 279.68 233.72 278.079 243.987C279.272 239.233 282.592 235.179 286.581 232.32C290.57 229.462 295.258 227.712 299.976 226.341C299.393 240.837 287.076 253.963 272.633 255.392L268.295 254.342Z" fill="#B4C48D"/>
<path d="M331.22 288.994C331.599 282.402 334.685 275.985 339.548 271.522C344.44 267.059 351.079 264.609 357.689 264.843C357.369 270.005 354.224 274.672 350.234 277.968C346.245 281.264 341.441 283.394 336.694 285.494C345.284 284.502 354.136 285.931 361.94 289.606C359.494 292.552 355.68 294.069 351.894 294.477C348.109 294.915 344.294 294.361 340.509 293.836C337.364 293.398 334.219 292.931 331.074 292.494L331.22 288.994Z" fill="#B4C48D"/>
<path d="M156.45 326.066C151.034 322.333 144.774 319.445 138.193 319.299C131.612 319.124 124.711 322.07 121.392 327.758C126.458 332.016 133.097 334.758 139.678 334.058C145.909 333.387 151.471 329.741 156.072 325.454L156.45 326.066Z" fill="#B4C48D"/>
<path d="M233.964 300.777C227.645 295.819 218.327 297.744 211.339 301.682C208.835 303.082 206.476 304.715 204.467 306.757C198.876 312.474 196.751 321.341 199.167 328.954C201.584 336.566 208.398 342.633 216.231 344.092C225.025 345.725 233.993 341.904 241.244 336.654C244.68 334.175 247.912 331.316 250.212 327.758C253.91 322.099 255.017 314.632 252.454 308.39C249.892 302.148 243.428 297.481 236.672 297.715C234.08 297.802 231.052 299.056 230.674 301.623L233.964 300.777Z" fill="#FE814B"/>
<path d="M263.141 245.358C255.22 244.687 246.601 247.429 242.117 253.963C237.08 261.284 238.536 271.901 244.33 278.639C250.125 285.377 259.414 288.41 268.295 288.06C273.594 287.856 279.01 286.427 283 282.956C285.416 280.827 287.164 278.085 288.736 275.285C291.997 269.509 294.793 262.947 293.599 256.442C292.347 249.617 286.523 244.046 279.767 242.5C273.012 240.954 265.645 243.229 260.52 247.896C260.84 247.692 261.161 247.488 261.481 247.283L263.141 245.358Z" fill="#FE814B"/>
<path d="M190.577 246.554C187.724 245.446 184.375 246.116 181.784 247.75C179.192 249.383 177.241 251.892 175.64 254.517C174.009 257.2 172.67 260.146 172.524 263.296C172.32 267.847 174.737 272.251 178.202 275.197C185.744 281.585 197.216 281.235 206.156 277.005C208.311 275.985 210.407 274.73 212.183 273.126C215.998 269.655 218.153 264.434 217.92 259.3C217.687 254.167 215.037 249.179 210.931 246.058C208.66 244.337 205.981 243.2 203.186 242.587C197.77 241.42 190.956 243.083 189.034 248.304L190.577 246.554Z" fill="white"/>
<path d="M330.725 283.714C322.485 279.543 311.07 284.064 307.925 292.756C305.974 298.152 307.081 304.511 310.517 309.09C313.982 313.67 319.602 316.47 325.338 316.732C334.219 317.112 343.101 311.015 345.488 302.44C347.847 293.865 343.071 283.772 334.743 280.622L330.725 283.714Z" fill="#FE814B"/>
<path d="M278.574 309.528C274.847 308.624 271.352 311.57 268.79 314.428C267.363 316.033 265.965 317.695 265.004 319.591C261.568 326.387 264.742 335.517 271.323 339.367C277.904 343.217 286.843 341.846 292.521 336.771C298.141 331.754 300.529 323.12 297.53 316.208C294.56 309.295 285.999 305.065 278.923 307.603L278.574 309.528Z" fill="#FE814B"/>
<path d="M232.158 337.092C226.568 340.679 222.928 347.184 222.841 353.863C222.811 356.459 223.306 359.143 224.733 361.33C225.956 363.168 227.762 364.568 229.654 365.676C236.555 369.672 245.64 370.168 252.483 366.027C259.326 361.885 263.141 352.901 260.462 345.376C257.783 337.85 248.261 333.271 241.04 336.713L232.158 337.092Z" fill="#FE814B"/>
<path d="M165.215 315.536C161.837 313.815 157.936 316.382 155.111 318.891C153.335 320.466 151.559 322.157 150.627 324.316C148.356 329.712 152.141 335.75 156.392 339.746C157.673 340.942 159.042 342.108 160.673 342.779C164.837 344.5 169.787 342.604 173.048 339.483C177.503 335.225 179.629 328.341 177.387 322.595C175.174 316.849 168.156 313.145 162.42 315.332L165.215 315.536Z" fill="#FE814B"/>
<path d="M322.106 344.121C318.728 342.4 314.826 344.967 312.002 347.475C310.225 349.05 308.449 350.742 307.517 352.901C305.246 358.297 309.032 364.334 313.283 368.33C314.564 369.526 315.933 370.693 317.563 371.364C321.727 373.085 326.677 371.189 329.939 368.068C334.394 363.809 336.519 356.926 334.277 351.18C332.064 345.434 325.047 341.729 319.31 343.917L322.106 344.121Z" fill="white"/>
<path d="M228.781 299.407C219.405 303.315 210.582 314.02 213.639 324.841C216.522 334.992 229.567 334.759 235.711 327.787C238.827 324.229 239.759 318.774 236.847 314.778C234.284 311.249 229.189 309.907 225.374 312.182C222.375 313.991 219.929 318.949 222.986 321.866C225.316 324.083 229.247 322.945 229.917 319.824C230.266 318.162 227.704 317.433 227.354 319.124C224.18 318.541 223.598 317.462 225.578 315.916C226.044 314.72 226.917 314.108 228.14 314.078C230.149 313.408 232.421 313.962 233.964 315.478C237.08 318.512 236.177 323.441 233.44 326.3C229.917 330.004 223.074 331.929 218.851 328.254C214.309 324.316 215.503 317.258 217.92 312.503C220.366 307.661 224.5 303.986 229.48 301.944C231.052 301.332 230.353 298.765 228.781 299.407Z" fill="#4B3425"/>
<path d="M283.436 342.605C290.134 337.734 295.375 329.479 291.561 321.108C288.095 313.583 277.642 311.482 272.401 318.512C268.12 324.229 270.188 334.584 278.836 333.475C281.893 333.067 285.271 330.704 285.358 327.35C285.417 324.025 282.272 321.895 279.243 322.741C277.758 323.15 278.108 325.279 279.593 325.366C280.117 325.396 280.67 325.425 281.194 325.454C282.912 325.541 282.912 322.858 281.194 322.8C280.67 322.77 280.117 322.741 279.593 322.712C279.709 323.587 279.826 324.462 279.942 325.337C282.709 328.108 282.505 329.887 279.36 330.704C276.419 331.521 274.322 330.383 273.012 327.321C272.197 324.696 273.245 321.458 275.05 319.504C278.253 316.033 283.99 316.033 287.251 319.416C293.861 326.212 288.358 335.779 282.097 340.359C280.728 341.292 282.068 343.596 283.436 342.605Z" fill="#4B3425"/>
<path d="M329.24 281.089C321.727 283.685 313.021 291.502 317.854 300.253C322.513 308.653 334.568 306.815 339.693 299.961C344.498 293.544 338.034 286.427 330.87 289.285C328.162 290.365 325.076 293.456 326.648 296.607C327.842 298.969 330.812 299.378 332.588 297.569C333.782 296.344 331.919 294.448 330.696 295.673C329.851 292.581 330.987 291.094 334.103 291.269C335.267 291.677 336.403 292.086 337.568 292.465C341.004 294.856 337.597 298.561 335.879 300.078C332.268 303.257 326.91 304.511 322.746 301.682C319.107 299.203 318.466 294.944 320.271 291.123C322.135 287.185 325.949 285.056 329.91 283.685C331.569 283.102 330.87 280.535 329.24 281.089Z" fill="#4B3425"/>
<path d="M261.539 244.629C256.385 248.654 252.629 254.196 251.086 260.555C249.63 266.564 250.066 270.968 255.017 274.906C263.577 281.76 276.855 284.998 281.864 272.426C283.553 268.168 285.562 261.78 282.679 257.638C279.884 253.613 274.293 252.067 269.692 253.584C265.616 254.926 261.685 259.563 263.519 264.026C265.062 267.759 270.275 269.364 272.196 265.309C272.924 263.763 270.624 262.422 269.896 263.968C265.878 261.838 265.179 259.738 267.8 257.638C268.673 257.142 269.518 256.646 270.391 256.151C272.196 255.509 274.235 255.538 276.069 256.063C280.961 257.551 281.776 261.809 280.845 266.243C279.272 273.593 275.225 280.243 266.547 278.231C262.937 277.385 259.763 275.256 256.88 272.981C253.299 270.151 252.512 266.972 253.357 262.538C254.58 256.034 258.249 250.492 263.403 246.467C264.771 245.446 262.879 243.579 261.539 244.629Z" fill="#4B3425"/>
<path d="M189.005 244.745C181.172 251.192 177.911 263.53 186.734 270.763C194.8 277.355 206.185 271.172 207.466 261.43C208.689 252.329 197.362 245.329 191.335 253.817C189.384 256.588 189.092 261.575 193.082 262.742C195.615 263.471 198.556 261.517 197.042 258.863C196.751 258.338 196.11 258.104 195.528 258.25C195.382 258.279 195.236 258.338 195.12 258.367C193.46 258.804 194.159 261.371 195.819 260.934C195.964 260.905 196.11 260.846 196.226 260.817C195.731 260.613 195.236 260.409 194.712 260.205C193.373 257.871 191.83 256.879 194.188 254.517C195.964 252.738 198.032 252.475 200.216 253.117C204.059 254.225 205.486 258.163 204.642 261.925C203.564 266.68 199.226 271.143 194.13 270.997C188.743 270.851 184.608 265.834 184.055 260.73C183.443 255.1 186.646 250.112 190.84 246.641C192.237 245.533 190.345 243.666 189.005 244.745Z" fill="#4B3425"/>
<path d="M172.408 317.578C166.846 316.266 160.644 318.92 158.489 324.462C156.451 329.654 158.897 336.567 164.08 338.929C169.874 341.555 173.922 333.767 172.728 328.779C171.563 323.966 164.313 322.158 163.177 327.904C162.857 329.566 165.419 330.296 165.739 328.604C168.942 327.496 170.457 328.137 170.253 330.617C170.136 331.258 169.991 331.929 169.874 332.571C169.408 334.058 167.952 336.946 165.943 336.829C162.915 336.654 160.818 331.929 160.527 329.508C159.77 323.237 165.856 318.803 171.68 320.174C173.368 320.554 174.096 317.987 172.408 317.578Z" fill="#4B3425"/>
<path d="M320.97 343.626C315.671 345.201 311.565 350.13 312.555 355.876C313.37 360.689 318.583 363.927 323.212 362.06C327.26 360.426 328.221 355.089 325.484 351.851C324.377 350.538 322.31 349.43 320.592 350.13C318.99 350.801 318.728 352.959 320.388 353.747C321.931 354.476 323.271 352.172 321.727 351.443C321.815 352.405 322.31 353.018 323.183 353.28C323.62 353.718 323.94 354.214 324.144 354.797C324.523 355.818 324.552 357.16 323.999 358.122C322.717 360.31 319.602 360.31 317.651 359.114C315.234 357.655 314.681 354.68 315.38 352.114C316.253 349.051 318.728 347.067 321.669 346.192C323.3 345.726 322.601 343.13 320.97 343.626Z" fill="#4B3425"/>
<path d="M227.849 346.776C223.248 362.76 254.318 366.464 255.395 349.313C255.832 342.488 246.864 339.221 242.496 344.471C238.914 348.759 244.185 355.03 248.349 350.859C249.572 349.634 247.679 347.767 246.456 348.963C246.136 345.696 247.038 344.325 249.106 344.85C250.62 344.763 251.785 345.521 252.571 347.126C253.153 348.438 252.484 351.005 251.843 352.23C250.183 355.526 247.067 357.451 243.486 358.005C237.575 358.88 228.257 354.913 230.412 347.505C230.907 345.842 228.344 345.113 227.849 346.776Z" fill="#4B3425"/>
<path d="M152.345 359.668C155.926 358.268 159.508 356.839 163.09 355.438C164.662 354.826 163.992 352.23 162.391 352.872C158.809 354.272 155.228 355.701 151.646 357.101C150.074 357.714 150.743 360.31 152.345 359.668Z" fill="#FFCE5C"/>
<path d="M167.923 354.009C176.513 350.042 185.452 347.038 194.683 344.996C196.343 344.617 195.644 342.05 193.984 342.43C184.521 344.53 175.407 347.651 166.584 351.734C165.011 352.434 166.38 354.738 167.923 354.009Z" fill="#FFCE5C"/>
<path d="M214.833 376.147C216.318 373.114 217.803 370.11 219.288 367.076C220.045 365.53 217.745 364.189 216.988 365.735C215.503 368.768 214.018 371.772 212.533 374.806C211.776 376.352 214.076 377.693 214.833 376.147Z" fill="#FFCE5C"/>
<path d="M259.676 370.81C263.374 374.398 267.334 377.635 271.556 380.552C272.983 381.544 274.293 379.21 272.896 378.248C268.848 375.448 265.063 372.327 261.539 368.914C260.316 367.747 258.424 369.614 259.676 370.81Z" fill="#FFCE5C"/>
<path d="M160.673 304.657C167.807 303.957 174.679 304.803 181.434 307.195C183.065 307.778 183.764 305.182 182.133 304.628C175.145 302.149 168.04 301.274 160.673 302.003C158.984 302.149 158.984 304.803 160.673 304.657Z" fill="#FFCE5C"/>
<path d="M272.924 303.111C278.573 301.711 284.193 300.311 289.842 298.911C291.502 298.502 290.803 295.936 289.144 296.344C283.495 297.744 277.875 299.144 272.226 300.544C270.566 300.952 271.265 303.519 272.924 303.111Z" fill="#FFCE5C"/>
<path d="M242.583 291.91C242.729 294.944 243.923 297.686 246.048 299.815C247.271 301.04 249.135 299.144 247.941 297.919C246.31 296.286 245.379 294.215 245.233 291.881C245.175 290.219 242.496 290.219 242.583 291.91Z" fill="#FFCE5C"/>
<path d="M353.408 323.966C358.766 319.591 366.716 318.658 372.947 321.662C367.531 326.825 358.679 327.933 352.127 324.316L353.408 323.966Z" fill="#B4C48D"/>
<path d="M144.745 282.168C137.174 277.735 127.011 278.202 119.877 283.306C127.099 287.506 136.737 287.156 143.638 282.46L144.745 282.168Z" fill="#B4C48D"/>
<path d="M309.469 265.688C310.808 258.659 315.642 252.417 322.106 249.325C321.611 255.975 316.835 262.071 310.546 264.201L309.469 265.688Z" fill="#B4C48D"/>
<path d="M158.139 378.335C152.985 381.485 148.152 388.748 145.298 394.086C144.57 395.457 144.279 397.674 145.793 398.053C146.609 398.257 147.366 397.674 147.977 397.12C153.306 392.219 156.946 385.481 158.139 378.335Z" fill="#B4C48D"/>
<path d="M272.284 247.954C279.709 247.4 286.494 253.263 286.814 260.788C286.873 262.509 289.551 262.509 289.493 260.788C289.144 251.921 281.224 244.629 272.313 245.271C270.566 245.417 270.566 248.071 272.284 247.954Z" fill="#FE814B"/>
<path d="M239.642 302.907C244.01 305.882 245.495 311.774 243.049 316.47C242.263 317.987 244.563 319.328 245.35 317.812C248.494 311.803 246.602 304.394 240.982 300.603C239.555 299.64 238.216 301.944 239.642 302.907Z" fill="#FE814B"/>
<path d="M313.37 298.24C312.176 294.273 313.924 290.073 317.592 288.09C319.107 287.273 317.767 284.969 316.253 285.785C311.594 288.323 309.294 293.865 310.808 298.94C311.274 300.603 313.865 299.903 313.37 298.24Z" fill="#FE814B"/>
<path d="M202.021 248.362C209.737 248.042 215.124 255.013 212.911 262.421C212.416 264.055 214.979 264.784 215.474 263.121C218.182 254.079 211.484 245.3 202.021 245.679C200.303 245.766 200.303 248.421 202.021 248.362Z" fill="#FE814B"/>
<path d="M322.688 234.537C317.913 224.27 323.271 208.461 333.258 203.123C333.666 202.919 334.103 202.715 334.54 202.803C335.209 202.948 335.53 203.707 335.704 204.378C338.238 213.536 335.238 224.037 328.221 230.454C332.181 228.179 336.316 225.933 340.858 225.291C345.401 224.649 350.438 225.874 353.292 229.491C343.828 234.012 333.084 235.792 322.688 234.537Z" fill="#B4C48D"/>
<path d="M350.701 214.295C349.623 207.936 351.458 201.169 355.563 196.211C358.242 202.248 356.641 209.949 351.749 214.382C357.485 209.365 366.628 208.753 373.005 212.953C366.017 216.278 357.893 217.182 350.351 215.491L350.701 214.295Z" fill="#B4C48D"/>
<path d="M240.137 238.767C235.595 222.666 230.528 205.865 217.891 194.169C216.639 193.002 214.746 194.898 215.998 196.065C228.286 207.469 233.149 223.833 237.546 239.496C238.012 241.129 240.603 240.429 240.137 238.767Z" fill="#9BB068"/>
<path d="M239.701 239.729C239.497 226.341 237.488 213.128 233.615 200.294C233.12 198.661 230.557 199.361 231.052 200.994C234.838 213.595 236.847 226.545 237.022 239.729C237.08 241.45 239.73 241.45 239.701 239.729Z" fill="#9BB068"/>
<path d="M182.22 380.698C169.612 391.082 155.985 403.245 155.985 420.95C155.985 422.671 158.634 422.671 158.634 420.95C158.634 404.004 172.058 392.482 184.084 382.594C185.453 381.486 183.56 379.619 182.22 380.698Z" fill="#9BB068"/>
<path d="M154.529 271.172C154.267 261.722 148.589 253.876 142.678 246.904C136.126 239.146 128.38 232.525 119.878 226.983C118.451 226.049 117.111 228.354 118.538 229.287C126.022 234.158 132.836 239.904 138.805 246.525C144.978 253.38 151.588 261.547 151.85 271.172C151.908 272.893 154.558 272.893 154.529 271.172Z" fill="#9BB068"/>
<path d="M155.315 270.298C156.334 258.047 154.47 245.942 149.841 234.567C149.2 232.992 146.638 233.692 147.278 235.267C151.821 246.438 153.655 258.28 152.636 270.298C152.52 272.018 155.169 271.989 155.315 270.298Z" fill="#9BB068"/>
<path d="M144.599 337.15C131.088 341.817 119.79 350.947 112.423 363.197C111.55 364.685 113.85 366.027 114.724 364.539C121.741 352.872 132.457 344.151 145.298 339.717C146.929 339.163 146.23 336.596 144.599 337.15Z" fill="#9BB068"/>
<path d="M330.463 325.95C338.267 320.845 346.682 317.083 355.709 314.691C357.369 314.253 356.67 311.687 355.01 312.124C345.78 314.574 337.131 318.424 329.124 323.646C327.697 324.579 329.036 326.883 330.463 325.95Z" fill="#9BB068"/>
<path d="M298.345 268.518C315.729 238.096 345.576 218.378 374.257 199.74C375.684 198.806 374.345 196.502 372.918 197.436C343.858 216.307 313.633 236.346 296.045 267.176C295.201 268.664 297.501 270.006 298.345 268.518Z" fill="#9BB068"/>
</svg>
