<svg width="461" height="515" viewBox="0 0 461 515" fill="none" xmlns="http://www.w3.org/2000/svg">
<path d="M227.861 175.321C225.413 168.185 228.539 160.311 233.434 155.033C238.359 149.754 244.817 146.422 250.773 142.471C261.035 135.629 270.383 126.104 273.214 113.66C276.016 101.216 270.236 85.7931 258.382 81.3108C252.454 79.0697 245.819 79.6889 240.039 76.976C229.07 71.7859 225.914 57.4839 219.22 47.0448C209.607 32.035 190.144 24.5153 174.043 29.5579C162.513 33.1851 152.192 42.533 140.072 40.7342C135.177 39.997 130.665 37.4904 126.036 35.6621C113.444 30.708 98.5816 31.0324 88.1425 39.0533C77.7035 47.0743 73.4866 63.6175 80.6819 75.472C90.6786 91.8973 113.444 91.1011 131.373 87.8279C149.332 84.5251 171.596 82.4904 182.89 98.0015C186.694 103.221 188.699 109.974 193.713 113.984C200.053 119.027 208.87 117.906 216.271 115.606C223.673 113.306 231.252 110.062 238.978 111.714C246.704 113.365 253.663 122.831 249.653 129.614C246.645 134.715 241.455 135.216 236.884 138.814C229.895 144.299 228.273 155.151 229.07 164.44L227.861 175.321Z" fill="#2E1200"/>
<path d="M251.954 130.675C265.725 122.772 281.177 107.939 277.756 90.3636C276.105 81.9593 270.325 76.0321 262.186 73.6435C255.404 71.6382 247.855 71.0484 242.606 65.7699C238.064 61.2287 236.56 55.0655 237.563 48.8728C238.3 44.4495 240.276 39.7903 239.509 35.249C238.684 30.3833 234.732 28.0537 230.279 26.8447C221.845 24.6035 212.38 25.4292 203.739 25.2818C197.547 25.1933 189.378 25.6946 184.837 20.5341C180.856 16.0223 181.859 9.00394 185.84 4.81653C190.292 0.127804 197.488 -1.31715 203.356 1.27787C204.948 1.9856 203.562 4.31522 201.999 3.60749C193.743 -0.0491287 179.676 9.06292 186.547 18.2929C189.201 21.8611 194.332 22.2739 198.402 22.4508C202.943 22.6573 207.514 22.6278 212.085 22.7162C221.786 22.8637 240.423 21.7431 242.252 35.0426C243.372 43.27 237.622 50.8781 241.22 59.0465C245.024 67.6572 254.165 68.6009 262.216 70.842C274.306 74.2037 281.737 84.6133 280.794 97.2345C279.614 113.129 266.315 125.514 253.31 132.975C251.806 133.889 250.45 131.53 251.954 130.675Z" fill="#2E1200"/>
<path d="M198.136 114.25C191.088 120.708 180.59 122.565 171.684 118.968C167.232 117.169 163.988 114.073 161.481 110.003C157.176 103.073 152.782 97.4704 144.053 96.4383C130.842 94.9049 120.462 105.786 108.49 109.325C98.4341 112.274 86.9925 109.384 80.387 101.009C72.8083 91.4252 74.9315 77.7424 82.7461 69.0726C83.9256 67.7751 85.8129 69.6919 84.6628 70.9894C73.693 83.1683 77.8804 102.542 94.3352 106.995C108.49 110.829 119.548 99.8295 131.992 95.3767C143.729 91.1893 155.525 94.9343 162.071 105.639C165.905 111.89 169.709 116.461 177.317 117.759C184.129 118.909 191.176 116.992 196.278 112.333C197.487 111.183 199.404 113.099 198.136 114.25Z" fill="#2E1200"/>
<path d="M301.406 210.147C309.309 218.522 317.212 226.897 325.115 235.272C325.999 236.215 324.584 237.66 323.67 236.717C315.767 228.342 307.864 219.967 299.961 211.592C299.106 210.619 300.521 209.204 301.406 210.147Z" fill="#2E1200"/>
<path d="M205.98 378.116C203.532 399.407 189.024 416.009 181.563 435.531C180.944 437.153 178.614 441.694 179.411 443.434C181.268 444.082 183.097 444.761 184.954 445.409C185.839 444.849 186.665 444.23 187.461 443.552C188.493 442.696 189.466 441.812 190.41 440.868C194.037 437.212 196.897 432.877 199.168 428.276C203.739 418.987 205.951 408.755 208.015 398.699C208.251 397.52 209.932 397.903 209.99 398.964C210.61 407.575 211.229 416.215 211.848 424.826C212.173 429.426 212.527 434.027 212.851 438.627C212.939 439.777 213.028 440.927 213.087 442.077C216.478 445.232 218.808 445.173 220.076 441.9C221.137 440.072 221.874 437.978 222.582 435.973C228.215 420.108 226.858 402.621 219.338 387.641C218.749 386.491 220.489 385.459 221.078 386.609C225.708 395.839 228.215 405.924 228.097 416.274C228.008 425.121 226.475 437.064 220.96 444.318C219.25 446.559 216.183 448.358 213.382 446.795C210.226 445.056 210.905 439.748 210.698 436.887C209.784 424.236 208.87 411.615 207.956 398.964C208.605 399.053 209.283 399.141 209.931 399.23C207.543 410.937 204.889 422.968 198.696 433.319C196.19 437.506 184.63 453.991 178.555 446.943C175.518 443.404 178.703 437.153 180.089 433.643C182.359 427.952 185.22 422.526 188.139 417.13C194.863 404.774 202.264 392.359 203.916 378.116C204.093 376.848 206.127 376.818 205.98 378.116Z" fill="#2E1200"/>
<path d="M45.2951 487.519C56.1765 495.776 70.1837 501.733 83.955 499.403C82.9229 501.939 82.2151 503.886 81.7433 505.39L316.681 514.472C316.681 514.472 385.39 369.476 383.001 290.446C382.175 262.814 376.926 234.24 355.37 214.984C336.645 198.234 309.662 192.13 285.246 197.084C255.816 203.07 228.421 220.94 216.389 246.802C212.467 226.071 191.029 210.678 168.706 208.408C146.383 206.107 124.06 214.984 106.691 228.254C89.3219 241.524 76.1404 258.922 63.5782 276.32C40.3115 308.552 17.9885 342.67 10.4098 380.947C2.86069 419.282 12.9164 462.955 45.2951 487.519Z" fill="#FE814B"/>
<path d="M185.603 195.373L207.867 194.164L188.434 235.006C181.298 249.986 189.525 267.149 205.272 270.127C205.538 270.186 205.803 270.215 206.068 270.274C221.491 273.105 236.383 261.192 237.209 245.209L241.632 159.19C236.855 153.853 232.52 148.073 228.716 141.939C212.939 150.668 189.171 168.155 185.603 195.373Z" fill="#FEAF8F"/>
<path d="M228.715 141.939C232.52 148.073 236.825 153.853 241.632 159.19L242.87 135.216C242.841 135.216 236.825 137.398 228.715 141.939Z" fill="#2E1200"/>
<path d="M256.317 182.841C251.127 186.763 243.991 185.878 240.334 180.806C236.678 175.763 237.916 168.48 243.077 164.528C248.267 160.606 255.403 161.491 259.06 166.563C262.716 171.635 261.478 178.919 256.317 182.841Z" fill="#FEAF8F"/>
<path d="M244.109 173.936C248.149 172.55 252.189 171.194 256.258 169.896C257.909 169.365 258.617 171.96 256.966 172.491C252.896 173.789 248.856 175.145 244.816 176.531C243.195 177.091 242.487 174.496 244.109 173.936Z" fill="#2E1200"/>
<path d="M207.867 194.164L189.555 232.676L224.233 192.129L207.867 194.164Z" fill="#2E1200"/>
<path d="M198.932 172.548C198.932 172.548 213.588 174.2 225.708 173.345C225.708 173.345 204.535 188.974 192.002 186.261L198.932 172.548Z" fill="white"/>
<path d="M218.925 150.433C212.349 153.854 205.685 157.835 199.817 162.406C199.61 161.669 199.433 160.902 199.227 160.165C201.969 161.049 204.741 161.934 207.484 162.819C209.135 163.35 208.427 165.945 206.776 165.414C204.034 164.529 201.262 163.644 198.519 162.76C197.664 162.494 197.074 161.167 197.929 160.519C203.975 155.8 210.787 151.642 217.569 148.133C219.102 147.308 220.488 149.637 218.925 150.433Z" fill="#2E1200"/>
<path d="M222.199 160.577C226.18 157.038 233.906 159.014 236.707 163.201C237.68 164.646 235.321 166.002 234.377 164.558C232.608 161.874 226.71 160.164 224.115 162.464C222.818 163.643 220.901 161.756 222.199 160.577Z" fill="#2E1200"/>
<path d="M22.619 453.785C52.8745 389.116 83.1006 324.447 113.356 259.807C115.479 255.295 117.956 250.4 122.675 248.248C126.715 246.419 131.492 247.039 135.915 247.717C175.754 253.821 215.093 262.874 253.458 274.758C255.669 275.436 258.028 276.262 259.267 278.12C260.712 280.361 259.945 283.221 259.09 285.728C243.431 331.819 217.57 374.165 191.914 416.128C177.14 440.249 162.396 464.371 147.622 488.464C146.236 490.705 144.673 493.123 142.078 494.008C139.572 494.863 136.8 494.067 134.264 493.27C97.5796 481.74 60.925 470.21 24.2409 458.709L22.619 453.785Z" fill="#2E1200"/>
<path d="M129.427 264.938C105.924 315.216 70.0363 386.638 46.5338 436.917L47.8607 440.839C77.1726 450.039 106.485 459.269 135.826 468.47C137.861 469.119 140.072 469.738 142.078 469.06C144.142 468.352 145.41 466.435 146.501 464.636C158.296 445.351 170.092 426.065 181.887 406.809C199.197 378.499 230.072 320.406 242.605 290.062C205.302 278.768 167.084 275.79 129.427 264.938Z" fill="white"/>
<path d="M32.0548 400.616C57.6806 422.173 81.5961 443.788 107.222 465.344C124.178 479.617 141.753 494.243 163.31 501.085C195.099 511.17 230.868 502.412 259.001 485.397C287.133 468.382 309.102 443.965 330.6 419.931C337.058 412.736 343.634 405.275 346.789 396.37C351.389 383.395 348.116 369.24 344.813 355.882C335.524 318.283 326.206 280.685 316.917 243.087C316.71 242.202 316.445 241.259 315.649 240.757C313.968 239.637 311.815 241.406 310.636 242.998C278.169 286.671 245.701 330.315 213.234 373.988C197.605 359.42 190.115 341.727 180.295 323.237L32.0548 400.616Z" fill="#FE814B"/>
<path d="M291.292 271.218C265.666 305.691 240.01 340.163 214.385 374.636C213.854 375.344 212.94 375.55 212.261 374.901C197.193 360.599 188.67 341.962 179.116 323.886C178.32 322.352 180.649 320.996 181.446 322.529C190.882 340.399 199.286 358.859 214.178 372.984C213.471 373.073 212.763 373.161 212.055 373.25C237.681 338.777 263.336 304.305 288.962 269.833C289.994 268.476 292.353 269.803 291.292 271.218Z" fill="#2E1200"/>
<path d="M34.7382 401.176C53.1687 416.717 71.2453 432.7 89.4989 448.447C106.219 462.896 122.851 478.348 141.901 489.731C160.98 501.143 182.3 505.802 204.417 503.266C225.619 500.819 245.878 492.503 263.66 480.884C284.45 467.29 301.966 449.508 318.627 431.255C319.807 429.957 321.694 431.874 320.544 433.171C290.937 465.58 256.937 496.808 212.202 504.829C191.56 508.545 170.416 506.687 151.308 497.782C131.167 488.404 114.27 473.129 97.5494 458.856C75.9046 440.396 54.6727 421.435 32.9099 403.093C31.4944 401.972 33.4112 400.056 34.7382 401.176Z" fill="#2E1200"/>
<path d="M181.976 323.149C191.56 340.311 163.546 370.98 121.465 391.533C79.3846 412.116 37.481 414.859 27.8971 397.696C18.3133 380.534 44.6468 349.924 86.7273 329.341C128.808 308.788 172.363 305.986 181.976 323.149Z" fill="#2E1200"/>
<path d="M160.921 331.789C141.724 312.474 129.162 294.279 113.415 265.439C109.316 257.949 87.2875 240.727 78.3524 241.229C69.4173 241.73 64.4042 251.166 62.9003 259.453C57.1499 256.032 48.9815 256.622 43.9094 260.868C38.8374 265.115 37.245 272.634 40.2528 278.385C34.1191 275.967 26.4816 277.588 22.0877 282.248C17.6939 286.907 16.8977 294.22 20.2004 299.646C11.4422 297.199 2.35968 304.689 0.531372 313.063C-1.32642 321.438 2.0058 330.049 5.60344 337.923C12.7692 353.463 21.6454 368.709 34.7974 380.298C47.9789 391.887 61.6617 399.79 79.5614 397.755C90.9146 396.458 105.777 391.179 115.744 385.901C137.242 374.4 161.481 355.026 160.921 331.789Z" fill="#FEAF8F"/>
<path d="M162.601 263.492C160.154 268.122 157.677 272.752 155.229 277.382C154.698 278.384 154.168 279.711 154.964 280.566C155.288 280.92 155.76 281.127 156.202 281.304C160.301 282.837 164.754 283.279 169.118 283.928C177.847 285.226 186.428 287.408 194.685 290.357C195.835 290.769 197.192 291.182 198.165 290.475C198.637 290.15 198.902 289.649 199.138 289.177C201.291 284.99 203.473 280.832 205.626 276.644C205.98 275.937 206.333 275.022 205.803 274.433C205.508 274.108 205.036 273.99 204.623 273.902C192.827 271.218 180.265 271.602 168.883 267.621L162.601 263.492Z" fill="#2E1200"/>
<path d="M215.003 372.335C221.402 380.444 227.182 389.763 229.659 393.302C238.978 406.719 243.873 413.472 251.216 427.922C251.746 428.924 252.307 430.015 253.309 430.605C255.02 431.578 257.349 430.752 258.588 429.278C259.797 427.804 260.151 425.857 260.387 423.999C260.917 419.812 256.052 405.186 252.543 394.157C252.012 392.476 254.459 391.503 255.403 393.007C261.773 403.151 271.091 416.214 275.662 417.276C276.989 417.571 278.522 417.748 279.643 417.04C280.822 416.273 281.206 414.799 281.383 413.442C282.002 409.344 277.874 395.1 274.571 384.249C274.01 382.42 276.694 381.388 277.697 383.039C282.592 391.06 288.548 400.674 290.465 401.853C293.65 403.8 295.626 405.422 298.929 403.593C302.349 401.676 304.178 397.931 303.765 394.216C301.199 370.241 285.924 349.865 270.472 330.933C268.29 328.249 265.931 325.477 262.598 324.268C257.762 322.528 252.041 324.799 248.945 328.662C245.849 332.525 248.267 337.892 248.444 342.758C245.052 337.568 237.267 334.206 231.724 337.302C226.18 340.428 224.823 348.656 228.096 353.905C223.82 351.457 213.322 353.226 210.521 357.089C206.511 362.692 210.845 367.057 215.003 372.335Z" fill="#FEAF8F"/>
<path d="M205.302 378.529C200.76 394.424 190.115 407.133 180.531 420.226C180.03 420.905 178.998 421.878 178.732 422.703C178.496 423.5 178.172 425.063 179.469 425.534C180.649 425.947 183.863 423.795 184.954 423.175C188.08 421.376 190.793 418.929 193.123 416.157C198.195 410.171 201.497 402.828 204.505 395.662C205.066 394.306 207.071 394.394 207.159 396.016C207.572 404.686 207.513 413.355 206.953 422.025C206.835 423.588 206.393 425.652 206.54 427.215C205.714 429.781 207.13 430.547 210.786 429.515C211.612 428.719 212.32 427.835 212.91 426.861C214.708 424.06 215.682 420.787 216.271 417.543C218.866 403.329 215.623 388.025 211.878 374.312C211.406 372.631 214.03 371.924 214.473 373.605C217.038 383.041 219.014 392.684 219.574 402.474C220.075 410.79 219.869 420.285 215.534 427.687C213.499 431.167 205.773 437.92 203.768 430.4C203.237 428.395 203.945 425.829 204.092 423.795C204.299 420.905 204.476 418.015 204.564 415.125C204.771 408.755 204.712 402.386 204.417 396.046C205.302 396.164 206.186 396.281 207.071 396.399C203.709 404.391 200.023 412.5 194.155 419.017C191.471 422.025 188.257 424.62 184.63 426.39C182.33 427.51 178.408 429.663 176.078 427.628C174.132 425.918 175.223 423.205 176.373 421.376C179.263 416.629 183.096 412.323 186.399 407.841C193.182 398.611 199.492 388.998 202.677 377.88C203.178 376.141 205.803 376.848 205.302 378.529Z" fill="#2E1200"/>
<path d="M81.3304 420.137C81.5368 425.593 86.2255 429.869 91.8284 429.721C97.4312 429.544 101.796 425.003 101.589 419.547C101.383 414.092 96.694 409.816 91.0911 409.964C85.4883 410.141 81.1239 414.711 81.3304 420.137Z" fill="#2E1200"/>
<path d="M104.686 442.667C104.892 448.123 109.581 452.399 115.184 452.251C120.787 452.074 125.151 447.533 124.945 442.078C124.738 436.622 120.049 432.346 114.447 432.494C108.844 432.671 104.479 437.241 104.686 442.667Z" fill="#2E1200"/>
<path d="M63.4897 257.654C70.685 257.241 76.6418 262.873 80.4753 268.624C82.569 271.749 84.4268 275.111 86.6385 278.119C89.5874 282.159 95.839 278.886 94.2171 274.138C93.2734 271.396 91.5926 268.801 89.4399 266.795C84.5153 262.136 79.0009 255.973 63.4897 257.654Z" fill="#2E1200"/>
<path d="M38.3355 277.176C48.2143 283.752 56.3237 292.362 62.0151 302.801C62.8408 304.335 60.5111 305.691 59.6854 304.158C54.2005 294.132 46.4745 285.845 36.9791 279.505C35.5341 278.532 36.8906 276.203 38.3355 277.176Z" fill="#2E1200"/>
<path d="M20.5542 299.527C26.8058 306.988 31.9074 315.127 35.7999 324.033C36.4782 325.596 34.1485 326.982 33.4703 325.389C29.6957 316.69 24.7416 308.698 18.6669 301.415C17.5463 300.088 19.4336 298.171 20.5542 299.527Z" fill="#2E1200"/>
<path d="M25.8034 370.98C18.1658 360.747 13.9784 348.657 13.831 335.888C13.8015 334.148 16.5144 334.148 16.5144 335.888C16.6619 348.215 20.7608 359.745 28.1036 369.623C29.1946 371.009 26.8355 372.366 25.8034 370.98Z" fill="#2E1200"/>
<path d="M227.595 353.403C238.919 366.349 248.031 380.917 254.607 396.84C255.255 398.433 252.66 399.141 252.012 397.548C245.613 382.096 236.707 367.882 225.678 355.32C224.558 354.023 226.445 352.106 227.595 353.403Z" fill="#2E1200"/>
<path d="M248.09 338.955C263.041 352.402 274.07 369.535 279.672 388.879C280.144 390.56 277.549 391.268 277.077 389.587C271.592 370.685 260.8 353.994 246.203 340.871C244.876 339.721 246.792 337.805 248.09 338.955Z" fill="#2E1200"/>
<path d="M316.521 121.558L324.395 125.834C329.172 129.402 328.523 130.552 329.644 136.421L332.386 153.878C332.504 154.468 333.33 154.468 333.448 153.878L336.161 136.539C337.252 130.7 337.134 129.402 341.882 125.834L349.313 121.558C349.608 121.352 349.608 120.91 349.313 120.703L340.909 116.693C336.22 113.124 336.485 110.736 335.424 104.927L333.478 88.4423C333.36 87.8526 332.534 87.8526 332.416 88.4423L330.145 105.516C329.084 111.296 328.494 113.685 323.835 117.282L316.551 120.703C316.227 120.939 316.227 121.352 316.521 121.558Z" fill="#FE631B"/>
<path d="M39.6469 180.556L51.9438 187.25C59.4339 192.824 58.4313 194.652 60.1417 203.823L64.447 231.13C64.624 232.044 65.9215 232.044 66.0984 231.13L70.3448 203.971C72.0257 194.829 71.8487 192.824 79.2799 187.221L90.928 180.527C91.3703 180.203 91.3703 179.524 90.928 179.2L77.7465 172.889C70.3743 167.286 70.8166 163.571 69.1358 154.488L66.0984 128.686C65.9215 127.771 64.624 127.771 64.447 128.686L60.9084 155.432C59.257 164.485 58.3428 168.23 51.0591 173.862L39.6469 179.2C39.1751 179.554 39.2046 180.232 39.6469 180.556Z" fill="#FE631B"/>
<path d="M409.099 356.264L421.396 362.958C428.886 368.531 427.883 370.36 429.594 379.531L433.899 406.837C434.076 407.751 435.374 407.751 435.551 406.837L439.797 379.678C441.478 370.537 441.301 368.531 448.732 362.928L460.38 356.234C460.822 355.91 460.822 355.232 460.38 354.907L447.199 348.597C439.826 342.994 440.269 339.278 438.588 330.196L435.551 304.393C435.374 303.479 434.076 303.479 433.899 304.393L430.361 331.139C428.709 340.193 427.795 343.938 420.511 349.57L409.099 354.907C408.657 355.291 408.657 355.94 409.099 356.264Z" fill="#FE631B"/>
<path d="M299.047 399.23C294.741 392.595 294.506 384.426 298.28 377.497C299.106 375.963 301.435 377.32 300.61 378.853C297.277 384.987 297.602 392.035 301.376 397.873C302.32 399.348 299.99 400.704 299.047 399.23Z" fill="#2E1200"/>
<path d="M275.514 415.861C271.18 409.167 271.18 400.733 275.544 394.069C276.488 392.624 278.817 393.981 277.874 395.425C274.01 401.353 273.981 408.548 277.844 414.505C278.788 415.95 276.458 417.306 275.514 415.861Z" fill="#2E1200"/>
<path d="M254.371 430.223C250.42 422.054 250.272 413.178 253.87 404.862C254.548 403.27 256.878 404.656 256.199 406.219C253.015 413.561 253.192 421.641 256.701 428.837C257.467 430.429 255.138 431.786 254.371 430.223Z" fill="#2E1200"/>
<path d="M115.273 287.526C111.616 289.649 107.989 291.743 104.333 293.866C102.829 294.751 101.472 292.421 102.976 291.536C106.633 289.413 110.26 287.319 113.916 285.196C115.42 284.341 116.777 286.671 115.273 287.526Z" fill="#FE814B"/>
<path d="M88.7327 306.015C85.312 308.787 81.8913 311.559 78.4411 314.36C77.1141 315.451 75.1973 313.535 76.5243 312.444C79.945 309.672 83.3658 306.9 86.8159 304.098C88.1724 303.007 90.0892 304.894 88.7327 306.015Z" fill="#FE814B"/>
<path d="M61.1308 329.37C57.5332 332.732 53.6112 335.681 49.3648 338.187C47.8609 339.072 46.5044 336.742 48.0083 335.858C52.0483 333.469 55.7934 330.697 59.2435 327.483C60.4821 326.274 62.3989 328.191 61.1308 329.37Z" fill="#FE814B"/>
<path d="M35.4464 350.337C33.0283 352.077 30.7577 354.023 28.6345 356.117C27.3959 357.355 25.4792 355.439 26.7177 354.2C28.9883 351.929 31.4654 349.865 34.0604 347.978C35.4759 347.005 36.8324 349.334 35.4464 350.337Z" fill="#FE814B"/>
<path d="M247.294 235.537C253.369 245.18 259.443 254.823 265.518 264.466C266.167 265.527 265.105 266.677 263.985 266.441C255.462 264.554 247.206 261.959 239.155 258.627C237.563 257.978 238.27 255.354 239.863 256.032C247.913 259.364 256.17 261.989 264.692 263.846C264.191 264.495 263.69 265.173 263.159 265.822C257.084 256.179 251.01 246.536 244.935 236.894C244.05 235.449 246.38 234.092 247.294 235.537Z" fill="#2E1200"/>
<path d="M181.18 227.309C171.861 228.784 162.514 230.258 153.195 231.733C153.313 230.907 153.401 230.081 153.519 229.256C160.921 234.623 168.647 239.488 176.698 243.882C178.231 244.708 176.875 247.037 175.341 246.212C167.32 241.818 159.594 236.952 152.163 231.585C151.337 230.995 151.219 229.315 152.487 229.108C161.806 227.634 171.154 226.159 180.472 224.685C182.153 224.449 182.89 227.044 181.18 227.309Z" fill="#2E1200"/>
</svg>
