<svg width="375" height="432" viewBox="0 0 375 432" fill="none" xmlns="http://www.w3.org/2000/svg">
<path d="M240.359 144.543C115.151 139.795 -13.1745 140.707 -135.937 169.335V421.525H521.658V174.442C478.595 165.93 435.125 159.984 390.863 156.963C340.463 153.318 290.783 146.749 240.359 144.543Z" fill="#3D4A26"/>
<path d="M176.172 317.561C176.124 319.119 176.076 319.983 176.076 319.983L161.474 305.716C141.214 331.276 113.904 350.385 84.3163 365.803C100.908 383.953 116.541 397.812 135.244 408.026C152.004 417.185 171.329 422.772 190.391 423.276C188.281 387.598 184.66 352.112 176.172 317.561Z" fill="#FEAF8F"/>
<path d="M161.474 305.716L151.884 296.365L55.6157 332.091C65.9019 344.679 75.2289 355.876 84.2923 365.803C113.904 350.385 141.238 331.276 161.474 305.716Z" fill="#1F160F"/>
<path d="M-83.5951 189.38C-67.2187 219.543 -48.133 248.244 -26.6735 275.002C-3.08009 304.422 25.6924 332.835 62.5211 340.939C59.5 352.256 60.0036 364.484 63.9358 375.49C64.5352 377.144 67.1727 386.759 68.923 386.951C71.5845 387.239 75.6366 382.923 76.9314 380.573C84.6999 366.402 79.1133 352.136 79.5928 341.658C123.111 329.118 159.293 312.071 193.796 282.723C222.712 258.122 244.171 226.113 265.271 194.559C273.975 181.54 282.774 168.328 288.001 153.559C288.865 151.089 289.656 148.475 289.272 145.886C288.865 143.105 287.21 140.707 285.556 138.429C264.864 109.753 240.767 83.0661 211.467 63.2611C182.167 43.4561 147.328 30.7962 111.962 31.6594C112.274 24.5142 111.626 14.1322 109.804 4.68524C108.557 -1.78855 99.206 -1.45287 98.3908 5.06888C97.192 14.6357 98.223 25.0417 101.867 31.06C71.3447 52.9749 41.1576 75.3215 11.3061 98.1237C-18.9529 121.214 -56.7407 147.133 -76.2581 179.813C-87.7191 170.486 -94.1929 163.077 -109.802 162.358C-111.384 162.286 -112.991 162.718 -114.238 163.725C-118.961 167.561 -113.399 174.682 -108.172 177.655C-99.6357 182.523 -90.7162 186.719 -81.533 190.219L-83.5951 189.38Z" fill="#926247"/>
<path d="M85.9228 135.144C86.1865 127.279 80.8396 119.894 73.8144 116.394C66.7891 112.869 58.4211 112.797 50.7964 114.715C42.9079 116.705 35.4511 120.83 30.2241 127.064C15.0466 145.166 21.7841 175.497 5.16805 192.281C-6.70061 204.27 -26.7454 205.037 -38.4942 217.145C-54.7027 233.833 -48.9242 265.195 -67.4105 279.294C-77.0013 286.607 -90.8601 287.038 -99.6117 295.334C-107.836 303.127 -109.179 315.475 -110.881 326.696C-112.799 339.476 -115.94 352.447 -123.445 362.949C-130.95 373.451 -143.658 381.052 -156.437 379.374L-160.705 377.695C-164.302 385.847 -164.086 395.582 -160.178 403.566C-156.413 411.239 -149.652 417.018 -142.555 421.789C-139.486 423.875 -136.297 425.793 -133.06 427.591C-101.794 421.693 -88.3904 381.723 -78.7756 352.112C-74.7475 338.493 -57.1004 337.702 -45.4715 329.837C-37.607 323.124 -29.7426 316.434 -27.4647 306.34C-21.3985 285.552 -24.1799 256.012 -0.802231 247.62C-13.558 260.544 -13.606 279.581 -11.3761 297.372C-8.93047 321.757 -34.1304 334.417 -49.4037 351.512C-63.1905 368.009 -54.8465 392.129 -61.3923 409.944C-66.3555 422.556 -73.5007 433.921 -82.0605 444.303C-77.2411 445.023 -72.3977 445.55 -67.5544 445.886C-60.2414 446.413 -52.8564 446.509 -45.6633 445.047C-24.8992 440.803 -7.89944 422.197 -5.5497 401.121C-4.25493 389.588 -6.91638 377.599 -3.43971 366.522C2.00308 349.163 21.0648 338.685 26.3638 321.277C30.5358 307.539 25.1649 292.553 27.7065 278.406C31.9264 254.933 56.9105 238.053 57.1743 214.22C57.3181 201.656 50.3168 188.948 54.2491 177.032C59.9077 160.008 85.2994 153.103 85.9228 135.144Z" fill="#1F160F"/>
<path d="M244.675 157.395C255.8 160.895 265.343 169.407 270.282 180.269C275.222 191.13 275.461 204.15 270.954 215.203C269.563 218.608 267.621 221.965 264.624 224.003C260.068 227.12 278.554 238.773 272.512 239.54C249.302 242.489 237.338 204.629 233.981 200.17C226.237 189.884 222.568 179.478 217.197 167.705C215.087 163.053 213.169 169.599 209.405 166.242C203.003 160.56 204.993 194.487 196.769 196.381C188.521 198.299 168.764 167.897 160.372 166.962C142.964 165.043 130.592 146.149 113.161 144.663C107.958 144.231 101.844 146.126 100.045 151.185C99.0382 154.038 99.6377 157.227 98.9663 160.176C97.5517 166.362 91.0299 169.791 84.9637 170.822C78.8975 171.877 72.5196 171.421 66.7651 173.675C56.9345 177.535 51.0841 189.884 54.2011 200.242L29.6246 154.086L76.236 94.2393L149.438 104.262L244.675 157.395Z" fill="#1F160F"/>
<path d="M215.639 177.487L66.1417 122.148C66.1417 122.148 66.861 202.519 121.96 227.671L131.335 196.118C131.335 196.118 154.066 218.92 175.501 240.307C193.412 258.194 223.599 253.806 235.516 231.436C235.684 231.148 235.827 230.836 235.995 230.549C246.641 210.36 237.05 185.4 215.639 177.487Z" fill="#FEAF8F"/>
<path d="M131.335 196.118L175.501 240.331L136.61 172.404L131.335 196.118Z" fill="#1F160F"/>
<path d="M76.4758 164.708C77.9624 175.449 80.3361 186.671 83.9087 196.933C84.2444 197.892 85.3473 197.94 85.9228 197.196C88.5363 193.744 91.1498 190.267 93.7633 186.814C94.6025 185.687 92.7083 184.585 91.8691 185.711C89.2556 189.164 86.6421 192.641 84.0286 196.094C84.6999 196.189 85.3713 196.261 86.0427 196.357C82.4461 186.095 80.0964 174.898 78.6098 164.132C78.394 162.741 76.284 163.341 76.4758 164.708Z" fill="#1F160F"/>
<path d="M91.8691 163.988C95.106 159.744 98.3189 155.524 101.556 151.281C102.419 150.154 100.501 149.075 99.6616 150.178C96.4247 154.421 93.2118 158.641 89.9749 162.885C89.1118 163.988 91.0299 165.091 91.8691 163.988Z" fill="#1F160F"/>
<path d="M94.7943 159.505C96.2569 161.759 97.6955 164.037 99.1581 166.29C99.9254 167.465 101.82 166.386 101.052 165.187C99.5897 162.934 98.1511 160.656 96.6885 158.402C95.9452 157.203 94.0271 158.306 94.7943 159.505Z" fill="#1F160F"/>
<path d="M79.6408 145.022C82.8537 143.248 86.0906 141.498 89.3035 139.723C90.5503 139.052 89.4474 137.158 88.2006 137.829C84.9877 139.604 81.7507 141.354 78.5378 143.128C77.315 143.8 78.4179 145.694 79.6408 145.022Z" fill="#1F160F"/>
<path d="M109.636 200.193C107.43 197.34 108.893 192.665 112.25 191.49C113.568 191.034 112.993 188.9 111.674 189.38C106.639 191.154 104.841 197.556 108.078 201.752C108.965 202.855 110.499 201.296 109.636 200.193Z" fill="#1F160F"/>
<path d="M294.115 262.87C292.101 275.457 251.724 289.34 216.334 283.658C180.944 277.975 153.97 263.157 155.936 250.569C157.518 240.427 204.969 227.072 240.359 232.754C275.749 238.413 296.154 250.282 294.115 262.87Z" fill="#1F160F"/>
<path d="M268.868 248.315C245.058 242.897 218.828 239.492 195.258 244.935C186.626 246.925 180.32 254.382 179.553 263.229C177.371 288.717 176.436 310.488 176.172 317.561C184.684 352.112 188.281 387.622 190.415 423.3C208.086 423.779 225.517 419.895 240.503 410.448C258.438 399.107 271.241 380.932 279.346 361.319C287.45 341.706 291.19 320.606 294.139 299.602C295.938 286.726 297.472 273.803 298.695 260.879C289.296 255.245 279.37 251.073 268.868 248.315Z" fill="#FEAF8F"/>
<path d="M411.076 248.771C408.822 208.921 408.102 168.976 408.965 129.078C362.738 118.432 315.455 112.294 268.052 110.807C257.982 110.496 247.696 110.424 238.153 113.661C224.894 118.144 214.368 128.718 207.247 140.779C200.125 152.839 189.144 170.846 180.776 189.236C172.672 207.099 163.968 229.206 157.494 246.805C190.367 228.87 243.836 235.104 271.265 246.062C280.353 249.682 289.272 255.269 298.647 260.879C299.462 252.272 300.182 243.664 300.757 235.056C336.938 243.376 373.959 247.98 411.076 248.771Z" fill="#9BB068"/>
<path d="M249.566 448.14C261.938 404.382 311.811 375.322 332.599 333.938C344.515 310.248 346.194 283.73 345.067 257.883C343.916 232.035 340.08 206.164 341.59 180.365C342.19 170.031 343.604 159.385 339.744 149.482C336.747 141.762 330.752 135.072 326.293 127.831C324.446 124.81 322.864 121.693 321.569 118.504C318.74 111.551 325.789 104.717 334.445 106.036C397.984 115.699 462.243 121.693 526.621 123.995C521.13 188.205 522.593 252.919 530.961 317.106C535.972 355.637 543.501 394.36 539.521 432.843C539.353 434.401 539.137 436.056 538.082 437.35C536.476 439.293 533.383 439.916 530.601 440.372C481.784 448.428 432.415 456.532 382.519 454.878C340.032 453.463 296.681 445.023 255.608 453.535L249.566 448.14Z" fill="#CFD9B5"/>
<mask id="mask0_688_11359" style="mask-type:luminance" maskUnits="userSpaceOnUse" x="249" y="105" width="292" height="351">
<path d="M249.566 448.14C261.938 404.382 311.811 375.322 332.599 333.938C344.515 310.248 346.194 283.73 345.067 257.883C343.916 232.035 340.08 206.164 341.59 180.365C342.19 170.031 343.604 159.385 339.744 149.482C336.747 141.762 330.752 135.072 326.293 127.831C324.446 124.81 322.864 121.693 321.569 118.504C318.74 111.551 325.789 104.717 334.445 106.036C397.984 115.699 462.243 121.693 526.621 123.995C521.13 188.205 522.593 252.919 530.961 317.106C535.972 355.637 543.501 394.36 539.521 432.843C539.353 434.401 539.137 436.056 538.082 437.35C536.476 439.293 533.383 439.916 530.601 440.372C481.784 448.428 432.415 456.532 382.519 454.878C340.032 453.463 296.681 445.023 255.608 453.535L249.566 448.14Z" fill="white"/>
</mask>
<g mask="url(#mask0_688_11359)">
<path d="M329.674 159.169C332.862 165.979 336.483 173.507 343.484 177.128C349.023 179.981 356.144 180.029 360.556 175.138C364.488 170.774 364.968 163.989 363.002 158.642C360.484 151.784 354.562 146.989 348.855 142.841C347.824 142.097 346.697 143.704 347.536 144.567C353.267 150.513 360.364 154.949 368.301 157.299C374.127 159.001 382.183 160.104 386.403 154.566C390.312 149.41 388.154 142.05 383.79 137.949C377.196 131.763 367.581 131.188 359.573 127.879C358.422 127.4 357.607 129.342 358.734 129.893C368.684 134.761 394.172 145.478 396.857 127.16C397.936 119.751 393.716 111.934 389.544 106.108C385.06 99.85 379.258 94.7908 372.544 91.0504C371.322 90.3551 370.195 92.2493 371.442 92.9446C382.087 98.843 392.925 110.064 394.651 122.628C395.155 126.345 394.483 130.421 391.606 133.082C388.297 136.151 383.574 135.336 379.57 134.593C372.712 133.298 366.119 131.044 359.861 127.975C359.573 128.646 359.309 129.318 359.021 129.989C365.495 132.675 372.832 133.394 378.898 137.014C384.269 140.203 389.664 148.284 384.077 153.942C379.57 158.522 371.37 156.172 366.143 154.254C359.645 151.88 353.914 147.972 349.143 143.009C348.711 143.584 348.256 144.16 347.824 144.735C356.024 150.681 367.989 162.67 359.261 173.316C354.825 178.734 347.009 177.344 342.046 173.531C337.011 169.671 334.253 163.629 331.616 158.042C330.968 156.795 329.074 157.898 329.674 159.169Z" fill="#E5EAD7"/>
</g>
<mask id="mask1_688_11359" style="mask-type:luminance" maskUnits="userSpaceOnUse" x="249" y="105" width="292" height="351">
<path d="M249.566 448.14C261.938 404.382 311.811 375.322 332.599 333.938C344.515 310.248 346.194 283.73 345.067 257.883C343.916 232.035 340.08 206.164 341.59 180.365C342.19 170.031 343.604 159.385 339.744 149.482C336.747 141.762 330.752 135.072 326.293 127.831C324.446 124.81 322.864 121.693 321.569 118.504C318.74 111.551 325.789 104.717 334.445 106.036C397.984 115.699 462.243 121.693 526.621 123.995C521.13 188.205 522.593 252.919 530.961 317.106C535.972 355.637 543.501 394.36 539.521 432.843C539.353 434.401 539.137 436.056 538.082 437.35C536.476 439.293 533.383 439.916 530.601 440.372C481.784 448.428 432.415 456.532 382.519 454.878C340.032 453.463 296.681 445.023 255.608 453.535L249.566 448.14Z" fill="white"/>
</mask>
<g mask="url(#mask1_688_11359)">
<path d="M275.341 394.072C276.78 402.752 279.945 411.048 284.86 418.337C288.241 423.372 293.3 429.126 300.014 426.345C306.368 423.708 308.502 416.562 307.063 410.28C305.025 401.385 297.616 395.103 293.612 387.191C293.037 386.064 291.334 386.855 291.598 388.03C294.163 398.604 309.293 401.289 318.164 402.896C327.444 404.574 339.24 405.245 341.111 393.353C342.621 383.714 335.764 374.842 327.827 370.239C316.726 363.765 302.603 362.878 290.183 360.72C288.793 360.48 288.217 362.59 289.608 362.83C305.96 365.659 333.965 366.762 338.689 387.047C339.792 391.818 338.833 398.004 334.133 400.546C329.65 402.967 323.439 401.601 318.74 400.762C310.684 399.299 296.01 396.973 293.708 387.43C293.037 387.718 292.365 387.982 291.694 388.27C294.571 393.952 299.007 398.556 302.148 404.07C305.744 410.376 307.639 420.854 299.127 424.283C291.838 427.208 286.683 417.665 283.853 412.438C280.616 406.492 278.554 400.114 277.451 393.449C277.212 392.106 275.102 392.681 275.341 394.072Z" fill="#E5EAD7"/>
</g>
<path d="M519.62 452.048C514.441 453.966 508.734 453.703 503.219 453.247C496.026 452.672 488.833 451.856 481.616 451.113C475.214 422.245 468.549 397.381 452.22 371.845C450.134 368.656 447.856 365.827 445.387 363.357C436.539 354.462 425.342 349.714 412.778 346.286C410.836 345.902 409.109 344.895 407.887 343.696C406.832 342.641 406.184 341.466 406.184 340.435C402.108 314.228 399.878 286.175 381.416 267.329C376.693 262.534 370.938 258.338 363.817 254.909C361.467 253.782 359.453 252.296 357.727 250.545C347.153 239.876 346.721 219.135 336.051 205.948C335.452 205.229 334.829 204.533 334.181 203.886C324.447 194.319 308.861 194.799 295.866 192.065C294.499 191.61 293.133 190.867 292.101 189.836C291.502 189.212 291.023 188.493 290.735 187.678C287.066 179.789 284.141 169.647 277.907 163.485C275.461 161.063 272.512 159.265 268.82 158.45C271.937 159.72 274.526 161.567 276.732 163.773C283.35 170.414 286.347 180.556 288.553 189.883C289.032 192.113 290.039 193.864 291.406 195.254C296.297 200.218 305.816 200.601 312.674 202.304C317.733 203.862 322.96 206.859 326.892 210.744C330.345 214.172 332.791 218.32 333.126 222.756C334.565 238.101 341.662 250.617 351.948 260.712C357.343 265.987 363.601 270.614 370.387 274.642C373.096 276.249 375.422 278.023 377.412 279.989C393.596 295.91 387.506 322.668 390.12 344.799C390.839 348.443 392.302 352.112 393.764 355.037C394.627 356.116 395.515 357.123 396.45 358.082C405.441 367.241 417.813 370.91 426.469 379.566C428.459 381.556 430.233 383.81 431.744 386.447C439.057 398.747 442.438 412.246 442.438 425.721C442.438 433.898 441.191 442.05 438.841 449.914C438.17 449.986 437.498 450.034 436.803 450.13C404.818 454.086 371.801 471.949 342.237 459.313C339.432 458.114 336.627 456.556 334.901 454.062C332.934 451.161 332.719 447.493 332.767 443.992C332.982 432.171 335.644 420.399 340.583 409.609C344.395 401.241 349.718 392.801 348.663 383.69C347.153 370.382 332.791 361.607 329.793 348.539C326.293 333.17 339.192 315.307 329.961 302.408C327.036 298.332 322.384 295.79 318.932 292.145C307.135 279.701 310.804 256.755 296.489 247.165C286.155 240.235 270.714 243.832 261.195 235.847C248.943 225.561 255.393 204.318 245.322 191.969C233.645 177.679 207.894 183.937 194.851 170.87C187.298 163.317 185.284 150.321 175.405 146.054C167.804 142.793 158.333 146.197 151.068 142.313C142.796 137.877 140.207 125.457 131 123.539C125.869 122.484 111.746 123.779 106.903 125.745C94.075 130.9 88.0567 131.763 75.7805 125.481L53.8415 115.627C48.9262 105.604 50.5566 92.8006 57.8696 84.2647C65.1826 75.7529 77.7466 71.9645 88.6562 75.0096C96.2809 77.1436 102.851 82.2027 110.619 83.7133C126.684 86.8782 142.077 74.2903 158.453 75.0336C176.916 75.8728 190.103 92.9204 207.343 99.4662C227.363 107.043 251.916 100.138 269.875 111.646C284.812 121.213 290.831 141.09 306.584 149.314C322.912 157.85 344.851 151.185 360.052 161.543C378.059 173.795 376.261 202.543 393.285 216.042C405.033 225.369 423.903 225.753 431.648 238.485C439.129 250.785 431.552 267.689 438.314 280.373C447.161 297.013 475.382 297.348 481.88 315.02C485.428 324.658 480.609 335.208 480.873 345.446C481.257 359.952 491.639 372.229 502.428 382.131C513.218 392.058 525.35 401.457 531.201 414.788C537.075 428.167 533.455 446.917 519.62 452.048Z" fill="#1F160F"/>
<path d="M139.56 123.731C142.485 132.626 137.665 142.217 128.77 145.166C119.874 148.115 110.284 143.272 107.334 134.377C104.385 125.481 109.229 115.89 118.124 112.941C127.019 110.016 136.634 114.835 139.56 123.731Z" fill="#FEAF8F"/>
<path d="M124.094 136.966C124.19 130.756 124.286 124.522 124.478 118.312C124.526 116.897 122.32 116.897 122.296 118.312C122.104 124.522 122.008 130.756 121.912 136.966C121.888 138.381 124.094 138.381 124.094 136.966Z" fill="#1F160F"/>
<path d="M59.9076 184.561C79.6647 194.991 97.3598 208.874 111.674 226.089C126.204 243.568 136.898 263.877 144.81 285.12C145.17 286.103 146.777 285.672 146.393 284.689C134.069 251.601 114.791 221.39 86.5941 199.666C78.4659 193.408 69.8102 187.942 60.7468 183.17C59.7878 182.643 58.9725 184.057 59.9076 184.561Z" fill="white"/>
<path d="M102.203 232.347C110.643 251.265 113.065 271.693 116.422 291.954C116.589 292.985 118.172 292.553 118.004 291.522C114.623 271.094 112.154 250.593 103.642 231.532C103.186 230.573 101.772 231.388 102.203 232.347Z" fill="white"/>
<path d="M-0.562458 175.521C-10.9925 172.956 -21.6383 172.476 -32.2841 174.011C-33.3151 174.154 -32.8835 175.737 -31.8525 175.593C-21.5184 174.107 -11.1363 174.61 -1.01803 177.104C0.0369644 177.367 0.468555 175.785 -0.562458 175.521Z" fill="white"/>
<path d="M1.40358 164.876C-3.3199 160.392 -8.04339 155.932 -12.7669 151.448C-13.5341 150.729 -14.709 151.88 -13.9178 152.599C-9.19429 157.083 -4.47081 161.543 0.252667 166.026C1.01993 166.746 2.17084 165.595 1.40358 164.876Z" fill="white"/>
<path d="M69.2827 333.122C68.2517 336.599 67.2207 340.075 66.1897 343.528C65.7821 344.895 67.8921 345.47 68.2997 344.104C69.3307 340.627 70.3617 337.15 71.3927 333.698C71.8003 332.355 69.6904 331.779 69.2827 333.122Z" fill="#1F160F"/>
<path d="M74.174 334.105C73.9342 337.582 73.7184 341.083 73.4786 344.559C73.3827 345.974 75.5886 345.95 75.6605 344.559C75.9003 341.083 76.1161 337.582 76.3559 334.105C76.4518 332.691 74.2699 332.715 74.174 334.105Z" fill="#1F160F"/>
<path d="M105.176 35.8314C105.944 38.0613 106.711 40.2911 107.478 42.521C107.814 43.528 109.396 43.0965 109.061 42.0894C108.293 39.8596 107.526 37.6297 106.759 35.3998C106.423 34.3928 104.841 34.8244 105.176 35.8314Z" fill="white"/>
<path d="M112.825 35.2317C114.767 38.013 116.685 40.7943 118.628 43.5517C119.227 44.4148 120.666 43.5996 120.042 42.7125C118.1 39.9311 116.182 37.1498 114.24 34.3925C113.64 33.5293 112.226 34.3445 112.825 35.2317Z" fill="white"/>
<path d="M379.306 343.72C371.585 352.4 367.245 364.484 365.927 375.586C365.327 380.621 365.039 386.951 368.804 390.883C377.603 400.09 392.325 391.842 400.262 385.728C408.989 378.99 417.813 369.016 420.067 357.939C423.831 339.332 404.29 326.96 388.393 336.191C384.964 338.205 381.943 340.771 379.306 343.72Z" fill="#1F160F"/>
<path d="M397.888 336.287C388.393 327.008 376.908 317.298 362.498 322.357C360.364 323.1 357.631 325.114 357.727 327.512C357.775 328.711 358.542 329.43 359.309 330.053C368.253 337.342 379.714 340.915 392.014 340.22L397.888 336.287Z" fill="#1F160F"/>
<path d="M200.533 131.068C207.99 136.391 215.711 141.402 225.206 141.426C230.169 141.426 235.084 140.347 240.023 140.539C246.281 140.779 250.549 143.752 255.057 147.78C256.112 148.715 257.671 147.18 256.616 146.221C253.331 143.296 249.95 140.395 245.658 139.148C241.006 137.805 236.139 138.381 231.416 138.812C226.141 139.292 221.058 139.436 215.998 137.59C210.747 135.671 206.144 132.363 201.636 129.15C200.485 128.358 199.382 130.253 200.533 131.068Z" fill="#926247"/>
<path d="M171.952 113.517C174.302 117.88 178.69 120.59 183.629 120.854C185.044 120.926 185.044 118.744 183.629 118.672C179.433 118.456 175.813 116.106 173.847 112.414C173.175 111.167 171.281 112.294 171.952 113.517Z" fill="#926247"/>
<path d="M-18.833 229.038C-8.47487 221.605 4.80842 220.526 15.4542 213.645C25.7883 206.955 28.1141 196.621 29.1212 185.04C29.241 183.626 27.0591 183.65 26.9393 185.04C26.4118 191.13 25.8843 197.58 22.8632 203.023C20.1058 208.01 15.4542 211.463 10.443 213.981C0.540503 218.992 -10.7767 220.574 -19.9359 227.144C-21.0868 227.959 -19.9839 229.853 -18.833 229.038Z" fill="#926247"/>
<path d="M39.815 161.95C41.7811 156.939 45.3537 152.863 50.0052 150.177C51.228 149.482 50.1251 147.588 48.9023 148.283C43.7232 151.256 39.8869 155.788 37.705 161.351C37.2015 162.693 39.3114 163.269 39.815 161.95Z" fill="#926247"/>
<path d="M326.844 255.988C329.77 266.442 337.322 274.762 347.393 278.766C348.711 279.294 349.263 277.16 347.968 276.656C338.617 272.94 331.64 265.076 328.954 255.413C328.595 254.046 326.485 254.622 326.844 255.988Z" fill="#926247"/>
<path d="M379.618 223.26C367.725 213.573 365.879 197.796 359.118 184.873C352.836 172.884 341.135 165.547 327.396 167.513C326.005 167.705 326.605 169.815 327.971 169.623C335.596 168.52 343.556 170.63 349.431 175.713C354.586 180.173 357.727 186.359 360.244 192.593C364.872 204.078 368.085 216.642 378.107 224.794C379.162 225.705 380.721 224.147 379.618 223.26Z" fill="#926247"/>
<path d="M71.2968 103.83C77.8186 112.03 88.6082 115.603 98.7505 113.061C100.117 112.725 99.5418 110.615 98.1751 110.951C88.7281 113.301 78.8975 109.872 72.8553 102.271C71.9682 101.168 70.4336 102.727 71.2968 103.83Z" fill="#926247"/>
<path d="M-144.425 346.214C-136.057 344.463 -131.525 336.551 -129.799 328.734C-127.305 317.489 -130.83 305.309 -125.579 294.639C-120.711 284.713 -109.442 279.869 -99.252 277.495C-94.0969 276.297 -88.6062 275.793 -84.0505 272.82C-80.3341 270.422 -77.6966 266.682 -75.6826 262.821C-70.2158 252.296 -67.1707 240.259 -64.2695 228.822C-62.9268 223.523 -61.4881 217.984 -58.3232 213.429C-54.6067 208.106 -48.9721 205.516 -42.858 203.886C-31.9484 200.985 -20.895 199.234 -11.2562 192.905C-2.21687 186.958 3.63353 177.943 8.0453 168.256C13.3682 156.603 16.8689 143.919 24.3497 133.346C31.8785 122.7 45.0899 114.404 58.3971 118.792C59.4042 119.127 59.8358 117.545 58.8287 117.209C49.4057 114.116 39.4313 117.161 31.7826 123.059C23.4865 129.461 18.4514 139.028 14.4232 148.499C9.86757 159.169 6.34296 170.462 -0.394608 180.029C-7.94737 190.771 -19.3365 196.429 -31.7806 199.618C-41.4913 202.088 -52.5927 203.095 -59.0904 211.726C-65.6841 220.502 -66.7631 233.042 -70 243.28C-73.5246 254.406 -77.2411 269.463 -89.6132 273.611C-94.9122 275.385 -100.547 275.865 -105.87 277.663C-110.449 279.222 -114.885 281.284 -118.769 284.209C-128.456 291.522 -130.302 302.144 -130.398 313.677C-130.494 324.754 -131.141 341.778 -144.856 344.655C-145.887 344.847 -145.456 346.429 -144.425 346.214Z" fill="#1F160F"/>
<path d="M62.6651 114.932C53.3859 110.688 47.7034 100.569 48.5426 90.427C49.5496 78.1029 61.2744 68.3682 72.136 64.2681C83.4771 60.0002 96.5926 61.1991 106.543 68.3202C114.767 74.1946 120.258 87.0463 132.079 85.7515C133.11 85.6316 133.134 84.0012 132.079 84.0971C120.45 85.3919 114.503 71.3893 105.92 65.9225C98.1511 60.9833 88.6082 59.161 79.5689 60.5996C63.0247 63.2371 44.3945 77.8151 47.1279 96.2535C48.3987 104.909 53.8655 112.702 61.8498 116.346C62.8089 116.778 63.6241 115.363 62.6651 114.932Z" fill="#1F160F"/>
<path d="M194.347 99.6579C210.436 102.223 226.261 98.1953 242.325 97.8117C255.56 97.5 270.618 100.018 279.681 110.615C284.357 116.058 286.875 122.892 290.783 128.862C293.876 133.561 297.88 137.422 302.915 139.939C313.081 145.022 324.974 144.855 336.028 145.79C348.783 146.869 360.868 149.626 369.595 159.696C377.436 168.76 381.608 180.293 387.986 190.315C390.935 194.967 394.388 199.354 398.68 202.855C404.146 207.291 410.668 210 416.566 213.788C423.232 218.08 428.459 224.195 431.264 231.651C433.83 238.485 433.782 245.342 432.943 252.487C432.152 259.105 430.809 266.442 433.494 272.796C435.916 278.55 441.191 281.284 446.849 283.13C454.618 285.648 461.523 288.093 467.038 294.495C472.409 300.705 475.286 308.666 475.094 316.866C475.07 317.921 476.725 317.921 476.749 316.866C477.037 304.781 470.707 293.033 460.397 286.679C454.546 283.082 447.569 282.531 441.599 279.27C434.405 275.314 433.159 267.833 433.71 260.304C434.214 253.423 435.772 246.613 434.909 239.684C434.118 233.33 431.672 227.216 427.884 222.061C419.396 210.48 404.386 207.578 395.011 197.029C386.787 187.797 382.543 175.881 375.949 165.571C369.739 155.86 361.491 148.955 350.15 146.173C338.09 143.224 325.454 144.303 313.345 141.69C307.327 140.395 301.501 138.069 296.969 133.801C291.478 128.646 288.745 121.453 284.908 115.123C265.535 83.2337 223.911 102.679 194.803 98.0275C193.748 97.9076 193.292 99.4901 194.347 99.6579Z" fill="#1F160F"/>
<path d="M183.366 149.123C182.359 157.563 184.588 166.17 189.743 172.956C195.042 179.909 202.955 183.626 210.627 187.318C218.588 191.13 227.028 195.422 231.008 203.79C235.252 212.686 234.029 222.972 233.55 232.467C233.118 241.026 233.022 249.898 236.786 257.81C240.503 265.651 247.049 271.621 251.772 278.814C254.218 282.555 256.16 286.679 256.376 291.21C256.615 296.102 254.721 300.681 252.587 304.973C249.135 311.855 244.507 319.024 245.802 327.104C246.737 332.834 250.022 337.894 251.628 343.432C253.115 348.539 253.858 354.078 252.803 359.353C251.628 365.227 247.672 371.03 241.438 372.157C237.41 372.876 232.782 370.454 232.854 365.947C232.926 361.967 238.537 359.617 240.743 363.525C241.27 364.436 242.685 363.621 242.157 362.686C238.896 356.955 230.097 360.816 231.2 367.098C232.998 377.264 245.61 374.315 250.405 368.464C256.184 361.415 255.608 351.273 253.211 343.001C251.508 337.15 247.792 331.756 247.264 325.617C246.785 319.863 249.494 314.54 252.06 309.577C256.28 301.425 260.092 293.248 256.448 284.113C252.875 275.122 245.13 268.624 240.119 260.496C228.49 241.578 243.38 216.738 229.881 198.803C223.335 190.099 212.378 186.814 203.195 181.779C190.99 175.114 183.27 163.365 184.972 149.123C185.14 148.068 183.509 148.092 183.366 149.123Z" fill="#1F160F"/>
<path d="M69.3067 170.223C59.9077 171.565 56.1912 182.451 57.5579 190.771C58.7328 197.892 62.3533 204.222 64.6312 211.008C67.0049 218.033 67.7482 225.705 66.0698 232.97C62.6171 247.98 48.4946 254.861 38.712 265.363C30.0802 274.642 23.2947 286.895 24.6854 299.962C25.5006 307.563 31.399 316.482 27.131 323.867C22.2157 332.427 10.419 330.917 2.33876 329.598C1.30775 329.43 0.852186 331.012 1.90718 331.18C11.7857 332.787 27.9463 333.602 30.1042 320.343C31.1592 313.917 27.6106 307.803 26.5556 301.593C25.1649 293.464 27.4188 285.049 31.375 277.951C35.0195 271.382 40.1985 265.795 45.7372 260.76C50.9163 256.06 56.9345 252.056 61.3703 246.565C69.3307 236.687 70.1938 222.9 66.4055 211.151C63.9358 203.503 59.2123 196.118 58.8767 187.894C58.6129 180.916 62.1855 172.884 69.7383 171.781C70.7693 171.661 70.3377 170.079 69.3067 170.223Z" fill="#1F160F"/>
<path d="M56.4789 114.764C47.5835 111.527 36.7698 105.197 34.8996 95.1026C34.7078 94.0716 33.1253 94.5032 33.3171 95.5342C35.3072 106.204 46.6723 112.942 56.0474 116.346C57.0304 116.706 57.462 115.123 56.4789 114.764Z" fill="#1F160F"/>
<path d="M30.9914 115.819C40.0307 113.517 49.3578 114.524 57.6778 118.744C58.6129 119.223 59.4521 117.809 58.517 117.329C49.7894 112.893 40.0307 111.814 30.5598 114.236C29.5288 114.5 29.9603 116.082 30.9914 115.819Z" fill="#1F160F"/>
<path d="M76.5477 121.381C83.8847 126.273 91.7971 130.78 98.5826 136.415C104.841 141.618 109.708 147.54 117.189 151.185C123.495 154.254 131 156.484 138.025 154.805C145.002 153.151 150.493 148.068 155.192 142.913C156.152 141.882 154.593 140.323 153.634 141.354C148.815 146.629 143.132 151.952 135.747 152.983C127.931 154.062 119.419 150.537 113.017 146.27C107.047 142.289 102.611 136.511 96.7843 132.315C90.5503 127.831 84.0286 123.731 77.6507 119.487C76.4758 118.696 75.3729 120.59 76.5477 121.381Z" fill="#1F160F"/>
<path d="M175.621 319.216C174.902 333.626 174.638 348.06 174.854 362.494C174.878 363.549 176.508 363.549 176.508 362.494C176.292 348.06 176.556 333.626 177.275 319.216C177.299 318.161 175.669 318.161 175.621 319.216Z" fill="#1F160F"/>
<path d="M168.812 359.521C171.905 355.541 173.823 350.913 176.053 346.429C176.508 345.494 175.094 344.655 174.638 345.59C172.48 349.93 170.658 354.486 167.661 358.346C166.989 359.185 168.164 360.36 168.812 359.521Z" fill="#1F160F"/>
</svg>
