<svg width="375" height="477" viewBox="0 0 375 477" fill="none" xmlns="http://www.w3.org/2000/svg">
<path opacity="0.48" d="M135.806 392.935C73.8496 389.523 12.3987 378.433 -46.6303 360.067C-63.0243 354.949 -79.4715 349.164 -93.3638 339.354C-107.256 329.544 -118.487 315.096 -120.669 298.542C-121.601 291.398 -120.696 283.668 -116.252 277.857C-107.496 266.367 -89.7976 266.981 -75.3464 269.62C-39.8971 276.071 -5.45902 287.746 26.3709 304.14C-24.6208 282.442 -74.202 246.961 -89.5581 195.06C-91.5275 188.422 -92.8848 181.438 -91.9533 174.587C-89.3718 155.874 -69.518 142.759 -50.0635 141.533C-30.6355 140.307 -11.8995 148.33 4.97351 157.714C34.0356 173.894 60.3565 194.713 82.499 219.078C33.4501 194.9 4.46786 143.425 -8.22684 91.4976C-9.77043 85.2332 -11.1011 78.6222 -9.47769 72.3578C-6.04453 59.2426 9.79057 52.0719 23.6297 53.5647C37.4688 55.0575 49.5779 63.0279 60.596 71.2383C99.9309 100.534 134.875 137.534 151.854 182.771C115.952 145.265 104.695 87.2591 124.043 39.4365C129.312 26.4012 137.11 13.6858 149.246 6.08857C161.408 -1.50868 178.627 -2.62827 189.645 6.35513C198.322 13.4459 201.489 24.9084 203.804 35.7045C214.157 84.3002 216.073 134.629 209.473 183.917C208.541 141.319 223.658 98.4817 251.336 65.2404C265.627 48.0733 283.246 33.5453 302.86 22.376C331.603 6.03525 364.87 35.2247 350.685 64.4407C350.578 64.654 350.498 64.8406 350.392 65.0538C329.394 107.945 298.069 146.064 259.639 175.494C283.246 139.107 316.885 108.878 356.087 88.8319C371.204 81.1013 389.328 74.8103 404.95 81.4212C425.229 90.0048 430.632 117.248 422.062 137.108C413.493 156.967 395.183 171.069 377.618 184.237C348.422 206.149 319.254 228.061 290.059 249.973C332.933 217.345 378.336 183.571 432.096 175.201C442.794 173.521 454.957 173.308 463.074 180.212C472.708 188.422 472.309 203.857 465.709 214.6C459.109 225.342 447.878 232.486 437.019 239.257C401.277 261.569 365.535 283.881 329.819 306.193C369.5 280.496 415.143 253.572 461.663 263.355C476.461 266.474 491.79 275.004 495.276 289.292C499.322 305.9 485.722 321.707 471.484 331.837C439.042 354.949 399.175 365.398 360.319 375.395C287.69 394.081 210.511 412.741 138.76 391.682L135.806 392.935Z" fill="#FFF0EB"/>
<path d="M129.196 261.932C122.541 260.43 116.865 259.27 115.612 259.179C101.959 258.132 88.0775 259.589 75.0399 263.912C3.4469 287.76 10.3532 382.401 23.1857 441.133C23.6643 443.295 27.3796 462.66 29.0207 462.728C29.0207 462.728 59.1987 464.048 100.773 465.868C101.571 396.919 105.172 327.764 129.196 261.932Z" fill="#FE814B"/>
<path d="M243.253 294.382C236.62 300.753 229.349 306.533 221.44 311.244C206.009 320.437 184.72 325.102 167.283 323.145C141.527 320.278 143.1 287.214 154.246 268.85C154.77 268.008 140.57 264.458 129.173 261.909C105.172 327.764 101.571 396.919 100.773 465.868C133.96 467.324 174.395 469.077 212.573 470.761C227.252 410.435 241.68 350.133 248.814 288.26C246.17 291.241 243.982 293.699 243.253 294.382Z" fill="white"/>
<path d="M376.524 345.195C376.569 329.516 373.88 312.745 368.045 298.159C351.018 255.606 294.036 237.97 261.122 274.061C260.575 274.675 253.897 282.435 248.814 288.238C241.68 350.133 227.252 410.435 212.573 470.738C280.314 473.696 340.875 476.336 340.898 476.336C341.263 476.336 349.24 454.126 350.243 451.828C354.642 441.702 358.563 431.371 361.982 420.857C368.364 401.219 373.606 380.443 375.749 359.872C376.227 355.116 376.501 350.201 376.524 345.195Z" fill="#FE814B"/>
<path d="M125.709 182.265C126.666 184.859 127.623 187.43 128.604 190.024C129.059 191.276 131.088 190.73 130.609 189.478C129.652 186.884 128.695 184.313 127.715 181.719C127.259 180.467 125.253 180.99 125.709 182.265Z" fill="#4B3425"/>
<path d="M146.382 305.213C148.707 320.551 163.637 324.692 177.267 324.26C194.498 323.691 211.206 318.116 225.543 308.672C232.403 304.144 238.74 298.842 244.575 293.085C246.489 291.196 259.914 273.811 261.1 274.061C242.364 270.215 222.83 269.419 204.254 269.168C186.111 268.941 169.654 268.44 154.246 268.873C147.681 279.75 144.399 292.061 146.382 305.213Z" fill="#FEAF8F"/>
<path d="M267.869 377.03C264.587 402.494 258.023 427.411 248.336 451.214C247.834 452.465 249.84 452.989 250.341 451.76C260.097 427.798 266.638 402.699 269.943 377.03C270.126 375.711 268.029 375.711 267.869 377.03Z" fill="#4B3425"/>
<path d="M139.476 285.097C134.849 298.136 134.803 312.29 139.362 325.375C139.795 326.626 141.824 326.103 141.368 324.829C136.923 312.063 136.969 298.409 141.482 285.666C141.915 284.369 139.909 283.846 139.476 285.097Z" fill="#4B3425"/>
<path d="M151.533 334.636C164.617 339.779 180.184 337.913 193.495 334.75C207.923 331.314 222.716 325.443 233.885 315.476C234.888 314.589 233.406 313.11 232.403 313.997C221.508 323.736 206.989 329.403 192.926 332.748C179.956 335.82 164.822 337.663 152.08 332.634C150.85 332.133 150.303 334.136 151.533 334.636Z" fill="#4B3425"/>
<path d="M111.965 203.382C111.554 199.149 108.409 195.645 104.762 193.779C101.115 191.89 96.9896 191.367 92.9552 190.866C83.7696 189.706 74.6068 188.545 65.4212 187.408C59.3583 186.634 52.999 185.746 48.1441 181.878C43.2892 178.009 40.8275 170.113 44.634 165.13C49.6712 158.553 61.2729 161.398 65.9911 154.571C69.5696 149.406 66.6065 141.828 61.8883 137.778C57.1701 133.727 51.1072 131.861 45.9332 128.47C38.3431 123.487 32.8727 115.067 31.2544 105.851C30.9581 104.213 30.7986 102.484 31.3 100.891C32.4625 97.2498 36.8615 95.7251 40.44 96.5216C44.0413 97.318 47.05 99.7529 50.0587 101.96C55.0504 105.601 61.2501 108.832 67.0395 106.853C72.6694 104.941 75.8605 98.7744 77.5699 92.8807C79.2794 86.9642 80.1227 80.5926 83.4733 75.5181C87.0974 69.9885 93.5934 66.6434 99.9983 67.0303C106.403 67.3944 112.512 71.4676 115.566 77.3841C118.256 82.6407 118.529 88.8074 119.714 94.6556C120.877 100.481 123.521 106.671 128.763 108.992C132.615 110.698 137.014 109.947 141.208 109.879C145.402 109.811 150.189 110.858 152.263 114.681C153.471 116.933 153.448 119.664 153.288 122.235C152.514 134.114 149.459 145.697 148.32 157.552C147.157 169.385 148.16 182.106 154.656 191.89L111.965 203.382Z" fill="#4B3425"/>
<path d="M231.104 269.669L142.234 175.711C129.698 179.602 116.295 175.552 107.224 166.495C99.1095 189.569 90.8128 229.005 113.332 259.338L135.396 237.675C135.396 237.675 144.057 264.822 152.605 291.492C160.605 316.455 191.239 325.602 211.662 309.15C211.935 308.922 212.209 308.718 212.459 308.49C229.372 294.791 246.056 285.484 231.104 269.669Z" fill="#FEAF8F"/>
<path d="M142.234 175.711L115.384 147.335C115.384 147.335 111.327 154.822 107.224 166.495C116.318 175.575 129.698 179.602 142.234 175.711Z" fill="#FEAF8F"/>
<path d="M175.079 181.969C173.438 190.616 165.118 196.305 156.457 194.666C147.795 193.028 142.097 184.722 143.738 176.075C145.379 167.428 153.699 161.739 162.36 163.378C171.022 164.993 176.72 173.322 175.079 181.969Z" fill="#FEAF8F"/>
<path d="M156.343 185.837C159.238 180.763 162.155 175.711 165.141 170.682C165.825 169.522 164.024 168.475 163.34 169.635C160.354 174.642 157.437 179.716 154.542 184.791C153.881 185.974 155.682 187.021 156.343 185.837Z" fill="#4B3425"/>
<path d="M135.396 237.675L153.22 292.538L150.531 220.608L135.396 237.675Z" fill="#4B3425"/>
<path d="M102.187 183.516C98.5168 193.028 95.3714 203.313 93.6619 213.349C93.5024 214.282 94.3457 214.896 95.189 214.532C98.9043 212.871 102.642 211.21 106.358 209.549C107.588 209.002 106.517 207.205 105.309 207.751C101.594 209.412 97.8558 211.073 94.1406 212.734C94.642 213.121 95.1662 213.508 95.6677 213.918C97.3772 203.86 100.523 193.574 104.192 184.085C104.694 182.833 102.665 182.287 102.187 183.516Z" fill="#4B3425"/>
<path d="M123.954 181.15C125.116 184.449 126.302 187.749 127.464 191.048C127.92 192.3 129.926 191.754 129.47 190.502C128.307 187.203 127.122 183.903 125.96 180.603C125.527 179.352 123.498 179.898 123.954 181.15Z" fill="#4B3425"/>
<path d="M126.21 193.187C128.262 192.027 130.313 190.844 132.387 189.683C133.55 189.023 132.501 187.225 131.339 187.885C129.288 189.046 127.236 190.229 125.162 191.39C123.977 192.05 125.025 193.847 126.21 193.187Z" fill="#4B3425"/>
<path d="M116.729 171.911C121.242 176.758 127.35 179.352 133.983 179.238C135.328 179.215 135.328 177.122 133.983 177.167C127.874 177.281 122.381 174.937 118.21 170.454C117.276 169.453 115.794 170.932 116.729 171.911Z" fill="#4B3425"/>
<path d="M109.161 233.806C109.161 233.806 110.027 222.246 113.355 217.468C119.008 209.344 121.264 208.843 126.302 205.908C128.398 204.679 131.316 204.201 133.755 204.269C136.171 204.315 138.747 206.158 138.678 208.57C138.633 210.937 136.33 212.552 134.256 213.69C125.093 218.787 114.723 223.452 109.868 232.759L109.161 233.806Z" fill="#4B3425"/>
<path d="M140.342 203.564C141.733 206.59 141.687 209.981 140.274 213.008C139.704 214.214 141.505 215.26 142.074 214.054C143.852 210.3 143.852 206.295 142.143 202.517C141.573 201.311 139.795 202.358 140.342 203.564Z" fill="#4B3425"/>
<path d="M53.3865 354.639C51.1984 383.857 52.9079 414.031 58.4922 442.817C58.7429 444.136 60.7487 443.568 60.498 442.27C54.9365 413.689 53.2954 383.675 55.4607 354.639C55.5747 353.296 53.4777 353.296 53.3865 354.639Z" fill="#4B3425"/>
<path d="M169.244 219.106C168.856 219.197 172.344 226.433 174.782 231.735C175.466 233.192 176.104 234.739 177.358 235.763C178.589 236.787 180.549 237.22 182.19 236.309C184.31 235.149 184.925 232.282 184.082 230.37C183.216 228.459 181.347 227.275 179.546 226.183C176.173 224.112 169.244 219.106 169.244 219.106Z" fill="#A28FFF"/>
<path d="M230.534 227.366C230.147 227.457 233.634 234.694 236.073 239.996C236.757 241.452 237.395 242.999 238.648 244.023C239.879 245.047 241.84 245.48 243.481 244.57C245.6 243.409 246.216 240.542 245.372 238.63C244.506 236.719 242.637 235.536 240.837 234.443C237.486 232.373 230.534 227.366 230.534 227.366Z" fill="#A28FFF"/>
<path d="M72.9658 221.063C72.7151 220.767 67.7006 227.025 63.9853 231.508C62.9596 232.76 61.8656 234.011 61.4553 235.559C61.0678 237.129 61.5465 239.063 63.0508 240.155C65.0338 241.566 67.8829 240.861 69.2277 239.268C70.5725 237.675 70.846 235.468 71.0512 233.374C71.4615 229.46 72.9658 221.063 72.9658 221.063Z" fill="#A28FFF"/>
<path d="M134.826 187.339C134.439 187.317 135.669 195.258 136.467 201.016C136.695 202.608 136.878 204.27 137.766 205.612C138.655 206.955 140.41 207.91 142.234 207.524C144.604 207.023 146.018 204.452 145.767 202.381C145.493 200.31 144.057 198.626 142.644 197.056C140.023 194.143 134.826 187.339 134.826 187.339Z" fill="#A28FFF"/>
<path d="M148.73 164.424C145.516 153.729 149.482 144.058 157.118 136.481C162.907 130.723 170.68 125.74 174.509 118.299C177.837 111.859 174.121 105.533 167.899 102.734C164.047 101.005 159.739 100.845 155.614 100.504C152.309 100.231 148.092 100.686 149.117 95.9755C149.687 93.3586 151.032 90.4004 154.086 90.1273C155.408 90.0136 155.431 87.92 154.086 88.0566C150.895 88.3296 148.912 90.4004 147.773 93.2904C146.793 95.748 145.676 99.9578 148.616 101.505C150.257 102.37 152.582 102.347 154.383 102.506C157.642 102.802 160.947 102.87 164.115 103.667C169.859 105.101 175.671 109.879 173.119 116.365C171.25 121.075 166.737 124.921 163.067 128.243C159.443 131.52 155.636 134.683 152.491 138.46C146.2 145.992 143.898 155.527 146.747 164.993C147.089 166.245 149.117 165.699 148.73 164.424Z" fill="#4B3425"/>
<path d="M55.0504 166.814C58.4921 166.518 60.817 164.493 62.9596 161.921C65.3984 159.031 68.0196 155.686 68.4527 151.818C69.2277 144.718 62.1162 140.326 55.8253 140.053C48.919 139.78 38.5938 142.283 34.1947 148.131C32.5536 150.316 31.3228 153.707 33.0323 156.232C34.3771 158.235 37.0439 158.804 38.9813 157.347C40.0298 156.551 39.0041 154.731 37.9328 155.55C34.3999 158.212 34.491 151.545 35.38 150.088C36.1321 148.882 37.2034 147.836 38.3431 147.016C39.893 145.901 41.6936 145.128 43.4943 144.491C48.3036 142.761 54.207 141.168 59.2443 142.67C64.4411 144.195 67.8601 149.019 65.6036 154.321C63.9397 158.258 59.7002 164.356 55.0504 164.743C53.7284 164.857 53.7284 166.928 55.0504 166.814Z" fill="#4B3425"/>
<rect x="245" y="203" width="116" height="116" rx="58" fill="white"/>
<g filter="url(#filter0_ddddd_2002_16242)">
<rect x="255" y="213" width="96" height="96" rx="48" fill="#BDA193"/>
<path fill-rule="evenodd" clip-rule="evenodd" d="M327 241C329.209 241 331 242.791 331 245L331 257C331 259.209 329.209 261 327 261C324.791 261 323 259.209 323 257L323 245C323 242.791 324.791 241 327 241Z" fill="#4B3425"/>
<path fill-rule="evenodd" clip-rule="evenodd" d="M279 241C281.209 241 283 242.791 283 245L283 257C283 259.209 281.209 261 279 261C276.791 261 275 259.209 275 257L275 245C275 242.791 276.791 241 279 241Z" fill="#4B3425"/>
<path fill-rule="evenodd" clip-rule="evenodd" d="M275 277C275 274.791 276.791 273 279 273H327C329.209 273 331 274.791 331 277C331 279.209 329.209 281 327 281H279C276.791 281 275 279.209 275 277Z" fill="#4B3425"/>
</g>
<rect x="189" y="89" width="80" height="80" rx="40" fill="white"/>
<g filter="url(#filter1_ddddd_2002_16242)">
<rect x="197" y="97" width="64" height="64" rx="32" fill="#A28FFF"/>
<path fill-rule="evenodd" clip-rule="evenodd" d="M237.781 113.781C238.822 112.74 240.511 112.74 241.552 113.781L249.552 121.781C250.594 122.822 250.594 124.511 249.552 125.552C248.511 126.594 246.822 126.594 245.781 125.552L237.781 117.552C236.74 116.511 236.74 114.822 237.781 113.781Z" fill="#1C0070"/>
<path fill-rule="evenodd" clip-rule="evenodd" d="M249.552 113.781C250.594 114.822 250.594 116.511 249.552 117.552L241.552 125.552C240.511 126.594 238.822 126.594 237.781 125.552C236.74 124.511 236.74 122.822 237.781 121.781L245.781 113.781C246.822 112.74 248.511 112.74 249.552 113.781Z" fill="#1C0070"/>
<path fill-rule="evenodd" clip-rule="evenodd" d="M208.448 113.781C209.489 112.74 211.178 112.74 212.219 113.781L220.219 121.781C221.26 122.822 221.26 124.511 220.219 125.552C219.178 126.594 217.489 126.594 216.448 125.552L208.448 117.552C207.406 116.511 207.406 114.822 208.448 113.781Z" fill="#1C0070"/>
<path fill-rule="evenodd" clip-rule="evenodd" d="M220.219 113.781C221.26 114.822 221.26 116.511 220.219 117.552L212.219 125.552C211.178 126.594 209.489 126.594 208.448 125.552C207.406 124.511 207.406 122.822 208.448 121.781L216.448 113.781C217.489 112.74 219.178 112.74 220.219 113.781Z" fill="#1C0070"/>
<path fill-rule="evenodd" clip-rule="evenodd" d="M219.26 134.973C222.054 132.829 225.478 131.667 229 131.667C232.522 131.667 235.946 132.829 238.74 134.973C241.534 137.117 243.543 140.123 244.455 143.526C244.836 144.948 243.992 146.41 242.569 146.792C241.147 147.173 239.684 146.328 239.303 144.906C238.695 142.638 237.356 140.634 235.493 139.204C233.631 137.775 231.348 137 229 137C226.652 137 224.369 137.775 222.506 139.204C220.644 140.634 219.304 142.638 218.697 144.906C218.316 146.328 216.853 147.173 215.431 146.792C214.008 146.41 213.164 144.948 213.545 143.526C214.457 140.123 216.465 137.117 219.26 134.973Z" fill="#1C0070"/>
</g>
<rect x="30" y="287" width="60" height="60" rx="30" fill="white"/>
<g filter="url(#filter2_ddddd_2002_16242)">
<rect x="36" y="293" width="48" height="48" rx="24" fill="#FE814B"/>
<path fill-rule="evenodd" clip-rule="evenodd" d="M52.695 321.48C54.7907 319.872 57.3585 319 60.0001 319C62.6417 319 65.2095 319.872 67.3052 321.48C69.401 323.088 70.9075 325.343 71.5912 327.894C71.8771 328.961 71.2439 330.058 70.177 330.344C69.1101 330.63 68.0134 329.996 67.7275 328.929C67.2717 327.228 66.2673 325.725 64.8702 324.653C63.473 323.581 61.7612 323 60.0001 323C58.239 323 56.5272 323.581 55.13 324.653C53.7328 325.725 52.7285 327.228 52.2727 328.929C51.9868 329.996 50.8901 330.63 49.8232 330.344C48.7563 330.058 48.1231 328.961 48.409 327.894C49.0927 325.343 50.5992 323.088 52.695 321.48Z" fill="#702901"/>
<path fill-rule="evenodd" clip-rule="evenodd" d="M48 307C49.1046 307 50 307.895 50 309V315C50 316.105 49.1046 317 48 317C46.8954 317 46 316.105 46 315V309C46 307.895 46.8954 307 48 307Z" fill="#702901"/>
<path fill-rule="evenodd" clip-rule="evenodd" d="M72 307C73.1046 307 74 307.895 74 309V315C74 316.105 73.1046 317 72 317C70.8954 317 70 316.105 70 315V309C70 307.895 70.8954 307 72 307Z" fill="#702901"/>
</g>
<defs>
<filter id="filter0_ddddd_2002_16242" x="238.2" y="209.8" width="129.6" height="158.4" filterUnits="userSpaceOnUse" color-interpolation-filters="sRGB">
<feFlood flood-opacity="0" result="BackgroundImageFix"/>
<feColorMatrix in="SourceAlpha" type="matrix" values="0 0 0 0 0 0 0 0 0 0 0 0 0 0 0 0 0 0 127 0" result="hardAlpha"/>
<feOffset/>
<feColorMatrix type="matrix" values="0 0 0 0 1 0 0 0 0 0.807843 0 0 0 0 0.360784 0 0 0 0.1 0"/>
<feBlend mode="normal" in2="BackgroundImageFix" result="effect1_dropShadow_2002_16242"/>
<feColorMatrix in="SourceAlpha" type="matrix" values="0 0 0 0 0 0 0 0 0 0 0 0 0 0 0 0 0 0 127 0" result="hardAlpha"/>
<feOffset dy="2.4"/>
<feGaussianBlur stdDeviation="2.8"/>
<feColorMatrix type="matrix" values="0 0 0 0 1 0 0 0 0 0.807843 0 0 0 0 0.360784 0 0 0 0.1 0"/>
<feBlend mode="normal" in2="effect1_dropShadow_2002_16242" result="effect2_dropShadow_2002_16242"/>
<feColorMatrix in="SourceAlpha" type="matrix" values="0 0 0 0 0 0 0 0 0 0 0 0 0 0 0 0 0 0 127 0" result="hardAlpha"/>
<feOffset dy="10.4"/>
<feGaussianBlur stdDeviation="5.2"/>
<feColorMatrix type="matrix" values="0 0 0 0 1 0 0 0 0 0.807843 0 0 0 0 0.360784 0 0 0 0.09 0"/>
<feBlend mode="normal" in2="effect2_dropShadow_2002_16242" result="effect3_dropShadow_2002_16242"/>
<feColorMatrix in="SourceAlpha" type="matrix" values="0 0 0 0 0 0 0 0 0 0 0 0 0 0 0 0 0 0 127 0" result="hardAlpha"/>
<feOffset dy="24"/>
<feGaussianBlur stdDeviation="7.2"/>
<feColorMatrix type="matrix" values="0 0 0 0 1 0 0 0 0 0.807843 0 0 0 0 0.360784 0 0 0 0.05 0"/>
<feBlend mode="normal" in2="effect3_dropShadow_2002_16242" result="effect4_dropShadow_2002_16242"/>
<feColorMatrix in="SourceAlpha" type="matrix" values="0 0 0 0 0 0 0 0 0 0 0 0 0 0 0 0 0 0 127 0" result="hardAlpha"/>
<feOffset dy="42.4"/>
<feGaussianBlur stdDeviation="8.4"/>
<feColorMatrix type="matrix" values="0 0 0 0 1 0 0 0 0 0.807843 0 0 0 0 0.360784 0 0 0 0.01 0"/>
<feBlend mode="normal" in2="effect4_dropShadow_2002_16242" result="effect5_dropShadow_2002_16242"/>
<feBlend mode="normal" in="SourceGraphic" in2="effect5_dropShadow_2002_16242" result="shape"/>
</filter>
<filter id="filter1_ddddd_2002_16242" x="185.8" y="94.8667" width="86.4" height="105.6" filterUnits="userSpaceOnUse" color-interpolation-filters="sRGB">
<feFlood flood-opacity="0" result="BackgroundImageFix"/>
<feColorMatrix in="SourceAlpha" type="matrix" values="0 0 0 0 0 0 0 0 0 0 0 0 0 0 0 0 0 0 127 0" result="hardAlpha"/>
<feOffset/>
<feColorMatrix type="matrix" values="0 0 0 0 1 0 0 0 0 0.807843 0 0 0 0 0.360784 0 0 0 0.1 0"/>
<feBlend mode="normal" in2="BackgroundImageFix" result="effect1_dropShadow_2002_16242"/>
<feColorMatrix in="SourceAlpha" type="matrix" values="0 0 0 0 0 0 0 0 0 0 0 0 0 0 0 0 0 0 127 0" result="hardAlpha"/>
<feOffset dy="1.6"/>
<feGaussianBlur stdDeviation="1.86667"/>
<feColorMatrix type="matrix" values="0 0 0 0 1 0 0 0 0 0.807843 0 0 0 0 0.360784 0 0 0 0.1 0"/>
<feBlend mode="normal" in2="effect1_dropShadow_2002_16242" result="effect2_dropShadow_2002_16242"/>
<feColorMatrix in="SourceAlpha" type="matrix" values="0 0 0 0 0 0 0 0 0 0 0 0 0 0 0 0 0 0 127 0" result="hardAlpha"/>
<feOffset dy="6.93333"/>
<feGaussianBlur stdDeviation="3.46667"/>
<feColorMatrix type="matrix" values="0 0 0 0 1 0 0 0 0 0.807843 0 0 0 0 0.360784 0 0 0 0.09 0"/>
<feBlend mode="normal" in2="effect2_dropShadow_2002_16242" result="effect3_dropShadow_2002_16242"/>
<feColorMatrix in="SourceAlpha" type="matrix" values="0 0 0 0 0 0 0 0 0 0 0 0 0 0 0 0 0 0 127 0" result="hardAlpha"/>
<feOffset dy="16"/>
<feGaussianBlur stdDeviation="4.8"/>
<feColorMatrix type="matrix" values="0 0 0 0 1 0 0 0 0 0.807843 0 0 0 0 0.360784 0 0 0 0.05 0"/>
<feBlend mode="normal" in2="effect3_dropShadow_2002_16242" result="effect4_dropShadow_2002_16242"/>
<feColorMatrix in="SourceAlpha" type="matrix" values="0 0 0 0 0 0 0 0 0 0 0 0 0 0 0 0 0 0 127 0" result="hardAlpha"/>
<feOffset dy="28.2667"/>
<feGaussianBlur stdDeviation="5.6"/>
<feColorMatrix type="matrix" values="0 0 0 0 1 0 0 0 0 0.807843 0 0 0 0 0.360784 0 0 0 0.01 0"/>
<feBlend mode="normal" in2="effect4_dropShadow_2002_16242" result="effect5_dropShadow_2002_16242"/>
<feBlend mode="normal" in="SourceGraphic" in2="effect5_dropShadow_2002_16242" result="shape"/>
</filter>
<filter id="filter2_ddddd_2002_16242" x="27.6" y="291.4" width="64.8" height="79.2" filterUnits="userSpaceOnUse" color-interpolation-filters="sRGB">
<feFlood flood-opacity="0" result="BackgroundImageFix"/>
<feColorMatrix in="SourceAlpha" type="matrix" values="0 0 0 0 0 0 0 0 0 0 0 0 0 0 0 0 0 0 127 0" result="hardAlpha"/>
<feOffset/>
<feColorMatrix type="matrix" values="0 0 0 0 1 0 0 0 0 0.807843 0 0 0 0 0.360784 0 0 0 0.1 0"/>
<feBlend mode="normal" in2="BackgroundImageFix" result="effect1_dropShadow_2002_16242"/>
<feColorMatrix in="SourceAlpha" type="matrix" values="0 0 0 0 0 0 0 0 0 0 0 0 0 0 0 0 0 0 127 0" result="hardAlpha"/>
<feOffset dy="1.2"/>
<feGaussianBlur stdDeviation="1.4"/>
<feColorMatrix type="matrix" values="0 0 0 0 1 0 0 0 0 0.807843 0 0 0 0 0.360784 0 0 0 0.1 0"/>
<feBlend mode="normal" in2="effect1_dropShadow_2002_16242" result="effect2_dropShadow_2002_16242"/>
<feColorMatrix in="SourceAlpha" type="matrix" values="0 0 0 0 0 0 0 0 0 0 0 0 0 0 0 0 0 0 127 0" result="hardAlpha"/>
<feOffset dy="5.2"/>
<feGaussianBlur stdDeviation="2.6"/>
<feColorMatrix type="matrix" values="0 0 0 0 1 0 0 0 0 0.807843 0 0 0 0 0.360784 0 0 0 0.09 0"/>
<feBlend mode="normal" in2="effect2_dropShadow_2002_16242" result="effect3_dropShadow_2002_16242"/>
<feColorMatrix in="SourceAlpha" type="matrix" values="0 0 0 0 0 0 0 0 0 0 0 0 0 0 0 0 0 0 127 0" result="hardAlpha"/>
<feOffset dy="12"/>
<feGaussianBlur stdDeviation="3.6"/>
<feColorMatrix type="matrix" values="0 0 0 0 1 0 0 0 0 0.807843 0 0 0 0 0.360784 0 0 0 0.05 0"/>
<feBlend mode="normal" in2="effect3_dropShadow_2002_16242" result="effect4_dropShadow_2002_16242"/>
<feColorMatrix in="SourceAlpha" type="matrix" values="0 0 0 0 0 0 0 0 0 0 0 0 0 0 0 0 0 0 127 0" result="hardAlpha"/>
<feOffset dy="21.2"/>
<feGaussianBlur stdDeviation="4.2"/>
<feColorMatrix type="matrix" values="0 0 0 0 1 0 0 0 0 0.807843 0 0 0 0 0.360784 0 0 0 0.01 0"/>
<feBlend mode="normal" in2="effect4_dropShadow_2002_16242" result="effect5_dropShadow_2002_16242"/>
<feBlend mode="normal" in="SourceGraphic" in2="effect5_dropShadow_2002_16242" result="shape"/>
</filter>
</defs>
</svg>
