<svg width="319" height="318" viewBox="0 0 319 318" fill="none" xmlns="http://www.w3.org/2000/svg">
<path fill-rule="evenodd" clip-rule="evenodd" d="M294.402 198.45C282.379 212.78 251.015 206.265 224.357 183.898C197.699 161.516 198.274 142.207 210.312 127.862C222.336 113.532 241.249 109.602 267.921 131.969C294.564 154.351 306.425 184.119 294.402 198.45Z" fill="#7D944D"/>
<path d="M285.285 169.819C280.785 169.819 276.463 167.913 273.409 164.5L254.423 143.271C251.797 140.331 250.351 136.549 250.351 132.604V122.337C250.351 121.229 251.251 120.342 252.342 120.342C253.449 120.342 254.334 121.243 254.334 122.337V132.604C254.334 135.559 255.411 138.395 257.388 140.597L276.374 161.826C279.03 164.781 282.954 166.243 286.878 165.712L294.254 164.722C295.346 164.589 296.349 165.342 296.497 166.435C296.644 167.529 295.877 168.533 294.785 168.681L287.409 169.671C286.716 169.76 285.993 169.819 285.285 169.819Z" fill="white"/>
<path fill-rule="evenodd" clip-rule="evenodd" d="M152.52 255.704C241.492 255.704 260.951 199.786 249.282 141.062C237.612 82.337 197.294 28 152.52 28C107.746 28 66.8959 78.6288 55.7724 141.062C44.649 203.509 63.547 255.704 152.52 255.704Z" fill="#9BB068"/>
<path fill-rule="evenodd" clip-rule="evenodd" d="M150.764 60.0142H173.114C196.408 60.0142 215.292 78.9243 215.292 102.252C215.292 125.579 196.408 144.489 173.114 144.489H150.764C127.47 144.489 108.587 125.579 108.587 102.252C108.587 78.9095 127.47 60.0142 150.764 60.0142Z" fill="#7D944D"/>
<path fill-rule="evenodd" clip-rule="evenodd" d="M156.001 56.3356H178.351C201.646 56.3356 220.529 75.2457 220.529 98.5731C220.529 121.9 201.646 140.811 178.351 140.811H156.001C132.707 140.811 113.824 121.9 113.824 98.5731C113.824 75.2457 132.707 56.3356 156.001 56.3356Z" fill="white"/>
<path d="M137.206 256.133C136.1 256.133 135.215 255.232 135.215 254.138V231.934C135.215 223.129 142.37 215.949 151.177 215.949H182.025C188.619 215.949 193.989 210.571 193.989 203.967V197.91C193.989 196.802 194.889 195.916 195.981 195.916C197.087 195.916 197.972 196.817 197.972 197.91V203.967C197.972 212.772 190.817 219.952 182.01 219.952H151.177C144.583 219.952 139.213 225.33 139.213 231.934V254.124C139.213 255.232 138.313 256.133 137.206 256.133Z" fill="#7D944D"/>
<path d="M195.981 155.658C194.874 155.658 193.989 154.757 193.989 153.663V152.275C193.989 146.764 198.459 142.288 203.962 142.288H248.278C249.385 142.288 250.27 143.189 250.27 144.282C250.27 145.39 249.37 146.277 248.278 146.277H203.962C200.657 146.277 197.972 148.965 197.972 152.275V153.663C197.972 154.771 197.087 155.658 195.981 155.658Z" fill="#7D944D"/>
<path fill-rule="evenodd" clip-rule="evenodd" d="M176.439 154.978L202.756 154.519C214.48 154.313 224.15 163.655 224.364 175.389C224.364 175.389 224.364 175.389 224.362 175.403C224.562 187.135 215.232 196.821 203.509 197.027L177.192 197.486C165.468 197.692 155.798 188.349 155.583 176.616C155.583 176.616 155.583 176.616 155.586 176.601C155.388 164.855 164.718 155.169 176.439 154.978Z" fill="#926247"/>
<path fill-rule="evenodd" clip-rule="evenodd" d="M182.711 154.495L208.516 154.05C220.375 153.839 230.173 163.309 230.379 175.176L230.377 175.19C230.58 187.072 221.126 196.871 209.254 197.066L183.449 197.511C171.59 197.723 161.804 188.27 161.583 176.4L161.586 176.385C161.382 164.504 170.837 154.704 182.711 154.495Z" fill="white"/>
<path d="M183.336 186.581C177.972 186.577 173.547 182.255 173.448 176.854C173.344 171.392 177.705 166.869 183.162 166.77L183.327 166.769C183.388 166.765 183.446 166.775 183.507 166.771C188.871 166.774 193.296 171.096 193.395 176.497C193.499 181.959 189.138 186.482 183.68 186.581L183.515 186.582C183.457 186.572 183.397 186.576 183.336 186.581ZM183.241 170.757C179.979 170.811 177.376 173.514 177.434 176.764C177.49 180.028 180.181 182.618 183.442 182.565L183.607 182.565C186.854 182.509 189.457 179.805 189.399 176.555C189.344 173.291 186.628 170.667 183.391 170.754L183.241 170.757Z" fill="#926247"/>
<path d="M199.804 173.346C198.741 173.338 197.854 172.506 197.817 171.436C197.772 170.333 198.624 169.404 199.726 169.359L214.867 168.708C215.969 168.663 216.898 169.517 216.943 170.62C216.989 171.722 216.137 172.651 215.035 172.696L199.894 173.347C199.864 173.342 199.835 173.336 199.804 173.346Z" fill="#926247"/>
<path d="M200.38 181.475C199.318 181.467 198.43 180.635 198.394 179.564C198.348 178.462 199.2 177.533 200.302 177.488L209.043 177.115C210.144 177.069 211.073 177.923 211.119 179.026C211.165 180.128 210.312 181.057 209.21 181.102L200.47 181.476C200.438 181.485 200.409 181.48 200.38 181.475Z" fill="#926247"/>
<path fill-rule="evenodd" clip-rule="evenodd" d="M165.596 82.0364C168.193 82.0364 170.302 84.149 170.302 86.7492V88.3447C170.302 90.9449 168.193 93.0575 165.596 93.0575C163 93.0575 160.89 90.9449 160.89 88.3447V86.7492C160.89 84.149 163 82.0364 165.596 82.0364Z" fill="#926247"/>
<path fill-rule="evenodd" clip-rule="evenodd" d="M198.967 82.0365C201.563 82.0365 203.673 84.1491 203.673 86.7492V88.3448C203.673 90.9449 201.563 93.0575 198.967 93.0575C196.37 93.0575 194.26 90.9449 194.26 88.3448V86.7492C194.26 84.1491 196.37 82.0365 198.967 82.0365Z" fill="#926247"/>
<path d="M178.446 113.992C173.076 113.992 168.709 109.619 168.709 104.241C168.709 103.133 169.609 102.247 170.701 102.247C171.807 102.247 172.692 103.148 172.692 104.241C172.692 107.418 175.274 110.003 178.446 110.003L187.371 109.929C190.558 109.9 193.125 107.373 193.213 104.182C193.243 103.074 194.172 102.217 195.264 102.247C196.37 102.276 197.226 103.192 197.196 104.3C197.049 109.648 192.741 113.874 187.401 113.933L178.446 113.992Z" fill="#4B3425"/>
<path fill-rule="evenodd" clip-rule="evenodd" d="M43.5359 217.736C59.7194 227.088 86.9084 210.246 104.287 180.108C121.665 149.97 114.525 132.035 98.3416 122.669C82.1581 113.332 63.0683 116.109 45.6898 146.247C28.3113 176.385 27.3523 208.385 43.5359 217.736Z" fill="#7D944D"/>
<path d="M82.0548 208.429C81.2582 208.429 80.491 207.941 80.196 207.144L74.4573 192.222C73.2918 189.194 73.5573 185.855 75.1949 183.048L87.1297 162.468C89.0328 159.204 92.5586 157.165 96.3353 157.165H112.076C113.183 157.165 114.068 158.066 114.068 159.159C114.068 160.252 113.168 161.154 112.076 161.154H96.3205C93.9601 161.154 91.762 162.424 90.567 164.463L78.6322 185.042C77.6143 186.8 77.452 188.884 78.1749 190.775L83.9136 205.725C84.312 206.759 83.7956 207.912 82.7629 208.311C82.5269 208.385 82.2909 208.429 82.0548 208.429Z" fill="white"/>
<path d="M232.746 317.931C249.824 317.931 263.668 304.067 263.668 286.965C263.668 269.864 249.824 256 232.746 256C215.669 256 201.825 269.864 201.825 286.965C201.825 304.067 215.669 317.931 232.746 317.931Z" fill="#FE814B"/>
<path fill-rule="evenodd" clip-rule="evenodd" d="M218.639 270H246.755C248.31 270 249.569 271.257 249.569 272.809V276.08C249.569 277.632 248.31 278.889 246.755 278.889H218.639C217.084 278.889 215.825 277.632 215.825 276.08V272.809C215.825 271.257 217.084 270 218.639 270Z" fill="#4B3425"/>
<path fill-rule="evenodd" clip-rule="evenodd" d="M219.873 278.889H245.869V301.811C245.869 303.363 244.609 304.62 243.054 304.62H222.687C221.132 304.62 219.873 303.363 219.873 301.811V278.889Z" fill="white"/>
<path fill-rule="evenodd" clip-rule="evenodd" d="M224.73 283.096H242.065C242.836 283.096 243.466 283.725 243.466 284.494V293.383C243.466 294.153 242.836 294.782 242.065 294.782H224.73C223.959 294.782 223.329 294.153 223.329 293.383V284.494C223.329 283.725 223.959 283.096 224.73 283.096Z" fill="white"/>
<path d="M240.15 289.959H228.701C227.93 289.959 227.3 289.33 227.3 288.561C227.3 287.791 227.93 287.162 228.701 287.162H240.15C240.921 287.162 241.551 287.791 241.551 288.561C241.564 289.33 240.934 289.959 240.15 289.959Z" fill="#4B3425"/>
<path d="M65.5931 74.6867C77.6685 62.5941 77.6685 42.9882 65.5931 30.8956C53.5177 18.803 33.9396 18.803 21.8642 30.8956C9.78876 42.9882 9.78876 62.5941 21.8642 74.6867C33.9396 86.7793 53.5177 86.7793 65.5931 74.6867Z" fill="#FE814B"/>
<path d="M46.9891 58.5701H41.5454V68.7047H46.9891V58.5701Z" fill="#4B3425"/>
<path fill-rule="evenodd" clip-rule="evenodd" d="M27.9877 34.962H60.5613C61.6678 34.962 62.5529 35.8632 62.5529 36.9565V57.8905C62.5529 58.9986 61.653 59.885 60.5613 59.885H27.9877C26.8812 59.885 25.9961 58.9838 25.9961 57.8905V36.9565C25.9961 35.8632 26.8812 34.962 27.9877 34.962Z" fill="white"/>
<path d="M54.203 70.906H34.9657C33.8593 70.906 32.9741 70.0048 32.9741 68.9115C32.9741 67.8183 33.874 66.9171 34.9657 66.9171H54.203C55.3095 66.9171 56.1946 67.8183 56.1946 68.9115C56.1946 70.0048 55.3095 70.906 54.203 70.906Z" fill="#4B3425"/>
<path d="M34.1838 54.3596C33.6675 54.3596 33.1659 54.1676 32.7676 53.7687C31.9857 52.9857 31.9857 51.7299 32.7676 50.9469L40.1733 43.5306C40.9552 42.7476 42.2092 42.7476 42.9911 43.5306L46.6202 47.1649L52.7868 40.9896C53.5687 40.2066 54.8226 40.2066 55.6045 40.9896C56.3864 41.7726 56.3864 43.0283 55.6045 43.8113L48.0217 51.4049C47.2398 52.1879 45.9858 52.1879 45.204 51.4049L41.5896 47.7854L35.6001 53.7834C35.2165 54.1676 34.7001 54.3596 34.1838 54.3596Z" fill="#4B3425"/>
<path d="M309.593 102.687C321.669 90.5941 321.669 70.9882 309.593 58.8956C297.518 46.803 277.94 46.803 265.864 58.8956C253.789 70.9882 253.789 90.5941 265.864 102.687C277.94 114.779 297.518 114.779 309.593 102.687Z" fill="#FE814B"/>
<path fill-rule="evenodd" clip-rule="evenodd" d="M279.343 90.9745C275.241 86.9413 273.648 82.1843 274.533 76.7329C275.861 68.5483 284.476 64.9879 290.982 67.0414C297.488 69.095 300.217 72.8327 300.999 78.4909C301.516 82.2729 299.908 86.4243 296.146 90.9745L294.774 93.2644V97.6226C294.774 101.478 291.661 104.596 287.81 104.596C283.96 104.596 280.847 101.478 280.847 97.6226V93.7667L279.343 90.9745Z" fill="white"/>
<path fill-rule="evenodd" clip-rule="evenodd" d="M285.848 82.4502H282.854C282.485 82.4502 282.19 82.1547 282.19 81.7854C282.19 81.6524 282.234 81.5194 282.308 81.416L287.574 73.7042C287.781 73.394 288.194 73.3201 288.504 73.527C288.681 73.6451 288.799 73.852 288.799 74.0736V77.6635C288.799 78.0329 289.094 78.3283 289.463 78.3283H291.971C292.339 78.3283 292.634 78.6238 292.634 78.9932C292.634 79.1261 292.605 79.2443 292.531 79.3477L287.751 86.9265C287.56 87.2368 287.147 87.3254 286.837 87.1334C286.645 87.0152 286.527 86.7936 286.527 86.572V83.1297C286.512 82.7604 286.217 82.4502 285.848 82.4502Z" fill="#4B3425"/>
<path fill-rule="evenodd" clip-rule="evenodd" d="M304.127 76.6884L307.107 76.1713C307.918 76.0236 308.7 76.5702 308.833 77.3828C308.98 78.1953 308.434 78.9635 307.623 79.1113L304.643 79.6283C303.832 79.7761 303.05 79.2295 302.917 78.4169C302.77 77.6044 303.315 76.8361 304.127 76.6884Z" fill="#4B3425"/>
<path fill-rule="evenodd" clip-rule="evenodd" d="M299.258 66.0073L301.029 63.5992C301.516 62.9344 302.46 62.7719 303.138 63.2594C303.802 63.747 303.95 64.6777 303.478 65.3425C303.478 65.3425 303.478 65.3425 303.478 65.3573L301.707 67.7654C301.22 68.4302 300.276 68.5927 299.598 68.1052C298.934 67.6176 298.772 66.6869 299.258 66.0073C299.258 66.0221 299.258 66.0221 299.258 66.0073Z" fill="#4B3425"/>
<path fill-rule="evenodd" clip-rule="evenodd" d="M286.468 62.2252V59.8319C286.468 58.8273 287.279 58 288.297 58C289.315 58 290.127 58.8125 290.127 59.8319V62.2252C290.127 63.2298 289.315 64.0571 288.297 64.0571C287.279 64.0571 286.468 63.2298 286.468 62.2252Z" fill="#4B3425"/>
<path fill-rule="evenodd" clip-rule="evenodd" d="M273.279 67.3074L271.155 65.1948C270.565 64.6186 270.565 63.6731 271.14 63.0822C271.14 63.0822 271.14 63.0822 271.155 63.0674C271.745 62.4765 272.689 62.4765 273.279 63.0674L275.404 65.18C275.994 65.7562 275.994 66.7017 275.418 67.2926C275.418 67.2926 275.418 67.2926 275.404 67.3074C274.813 67.8836 273.869 67.8836 273.279 67.3074Z" fill="#4B3425"/>
<path fill-rule="evenodd" clip-rule="evenodd" d="M270.388 78.2693L267.363 78.0033C266.537 77.9295 265.932 77.2056 266.006 76.393C266.08 75.5657 266.803 74.96 267.629 75.0339L270.653 75.2998C271.479 75.3736 272.084 76.0976 272.011 76.9101C271.937 77.7374 271.214 78.3431 270.388 78.2693Z" fill="#4B3425"/>
<path d="M293.166 95.3474C293.151 95.3474 293.151 95.3474 293.166 95.3474L282.499 95.2883C281.393 95.2883 280.508 94.3872 280.523 93.2792C280.523 92.1859 281.423 91.2995 282.514 91.2995C282.514 91.2995 282.514 91.2995 282.529 91.2995L293.18 91.3586C294.287 91.3586 295.172 92.2598 295.157 93.3678C295.142 94.461 294.257 95.3474 293.166 95.3474Z" fill="#4B3425"/>
<path d="M290.731 102.542H284.875C283.768 102.542 282.883 101.641 282.883 100.548C282.883 99.4544 283.783 98.5532 284.875 98.5532H290.731C291.838 98.5532 292.723 99.4544 292.723 100.548C292.723 101.641 291.823 102.542 290.731 102.542Z" fill="#4B3425"/>
<path d="M244.035 24.7801C241.122 26.4619 237.335 26.1577 234.718 23.7791C234.536 23.6113 234.328 23.4582 234.123 23.3381C233.258 22.8139 232.237 22.6694 231.254 22.9131C230.27 23.1569 229.448 23.7682 228.925 24.633L228.751 24.9212C228.618 25.1342 228.486 25.3472 228.333 25.5548C226.961 27.456 224.933 28.6948 222.616 29.0774C220.304 29.4398 217.977 28.89 216.088 27.5069L215.14 26.809C214.967 26.6869 214.789 26.585 214.611 26.4831C213.669 26.0031 212.6 25.9212 211.602 26.2584C210.597 26.5828 209.793 27.2856 209.315 28.2272C209.114 28.6163 208.885 28.9872 208.641 29.3325C207.396 31.0409 205.566 32.1488 203.483 32.4646C201.399 32.7803 199.319 32.2754 197.61 31.0272L194.546 28.7877C193.66 28.1389 193.465 26.8867 194.112 26.0013C194.76 25.1159 196.011 24.9224 196.896 25.5711L199.961 27.8107C200.799 28.4357 201.832 28.6919 202.86 28.5249C203.896 28.3707 204.801 27.8141 205.424 26.9764C205.546 26.8037 205.66 26.6183 205.755 26.4274C206.704 24.5315 208.345 23.1239 210.355 22.475C212.37 21.806 214.517 21.9828 216.412 22.9353C216.774 23.119 217.145 23.3483 217.49 23.5925L218.451 24.283C219.482 25.0356 220.743 25.3312 222.007 25.1303C223.27 24.9295 224.373 24.242 225.123 23.2114C225.196 23.1013 225.281 22.9837 225.354 22.8735L225.528 22.5853C226.597 20.808 228.286 19.543 230.312 19.0388C232.325 18.542 234.426 18.8472 236.203 19.9193C236.642 20.1777 237.057 20.4839 237.429 20.8323C239.045 22.3044 241.55 22.1885 243.019 20.5727C243.161 20.4055 243.303 20.2382 243.43 20.0454L245.321 17.0944C245.913 16.1726 247.153 15.9004 248.075 16.494C248.997 17.0876 249.283 18.3212 248.678 19.2504L246.788 22.2014C246.546 22.5796 246.277 22.9397 245.973 23.2688C245.368 23.8738 244.725 24.3818 244.035 24.7801Z" fill="#FFCE5C"/>
<path d="M9.63341 132.294C4.3225 132.294 0 127.966 0 122.647C0 117.329 4.3225 113 9.63341 113C14.9443 113 19.2668 117.329 19.2668 122.647C19.2816 127.951 14.9443 132.294 9.63341 132.294ZM9.63341 116.974C6.52063 116.974 3.98319 119.515 3.98319 122.632C3.98319 125.75 6.52063 128.291 9.63341 128.291C12.7462 128.291 15.2836 125.75 15.2836 122.632C15.2836 119.515 12.7462 116.974 9.63341 116.974Z" fill="#A28FFF"/>
<path d="M31.1736 285.965C30.5983 285.965 30.0377 285.728 29.6394 285.256C28.9313 284.413 29.0345 283.143 29.8902 282.449L61.0918 256.226C62.6261 254.94 63.5555 253.138 63.7325 251.144C63.9095 249.149 63.2899 247.214 62.0065 245.677C60.723 244.141 58.9232 243.21 56.9316 243.033C54.94 242.856 53.0074 243.476 51.4731 244.761L20.2715 270.984C19.4306 271.694 18.1766 271.59 17.4685 270.733C16.7604 269.891 16.8637 268.621 17.7193 267.926L48.921 241.688C51.2666 239.724 54.2319 238.778 57.2856 239.044C60.3394 239.31 63.0982 240.758 65.0602 243.092C67.0223 245.441 67.9665 248.41 67.7009 251.469C67.4354 254.527 65.9897 257.289 63.644 259.254L32.4424 285.492C32.0735 285.817 31.6162 285.965 31.1736 285.965Z" fill="#7D944D"/>
<path d="M155.964 311.642C149.37 311.642 144 306.117 144 299.321C144 292.525 149.37 287 155.964 287C157.071 287 157.956 287.901 157.956 288.994C157.956 290.102 157.056 290.989 155.964 290.989C151.568 290.989 147.983 294.727 147.983 299.306C147.983 303.901 151.568 307.624 155.964 307.624C157.071 307.624 157.956 308.525 157.956 309.618C157.956 310.711 157.071 311.642 155.964 311.642Z" fill="#FFCE5C"/>
</svg>
