<svg width="375" height="595" viewBox="0 0 375 595" fill="none" xmlns="http://www.w3.org/2000/svg">
<path d="M657.5 116.711C657.5 235.537 561.173 331.865 442.347 331.865C323.521 331.865 227.192 235.537 227.192 116.711C227.193 -2.11488 323.521 -98.4423 442.347 -98.4423C561.172 -98.442 657.5 -2.11474 657.5 116.711Z" stroke="#AC836C"/>
<path d="M179.98 263.048C179.98 352.098 107.791 424.288 18.7402 424.288C-70.3103 424.288 -142.5 352.098 -142.5 263.048C-142.5 173.997 -70.3103 101.808 18.7402 101.808C107.791 101.808 179.98 173.997 179.98 263.048Z" stroke="#AC836C"/>
<path d="M25.9424 39.692C25.9424 69.1913 2.02857 93.1059 -27.4707 93.1061C-56.9701 93.1061 -80.8848 69.1915 -80.8848 39.692C-80.8846 10.1928 -56.97 -13.7211 -27.4707 -13.7211C2.02844 -13.7209 25.9422 10.1929 25.9424 39.692Z" stroke="#AC836C"/>
<path d="M210.789 135.967C210.788 150.578 198.943 162.423 184.332 162.423C169.72 162.422 157.876 150.578 157.875 135.967C157.875 121.355 169.72 109.51 184.332 109.51C198.943 109.51 210.789 121.355 210.789 135.967Z" stroke="#AC836C"/>
<path d="M334.019 382.428C334.019 397.04 322.174 408.884 307.562 408.884C292.951 408.884 281.106 397.04 281.106 382.428C281.106 367.817 292.951 355.971 307.562 355.971C322.174 355.971 334.019 367.817 334.019 382.428Z" stroke="#AC836C"/>
<path d="M295.51 316.961C295.51 346.46 271.596 370.375 242.097 370.375C212.597 370.375 188.683 346.461 188.683 316.961C188.683 287.462 212.597 263.548 242.097 263.548C271.596 263.548 295.51 287.462 295.51 316.961Z" stroke="#AC836C"/>
<path d="M79.8555 494.105C79.8555 523.605 55.9417 547.519 26.4424 547.52C-3.05705 547.52 -26.9717 523.605 -26.9717 494.105C-26.9715 464.606 -3.05693 440.692 26.4424 440.692C55.9415 440.693 79.8553 464.606 79.8555 494.105Z" stroke="#AC836C"/>
<path d="M241.596 -14.2208C241.596 45.0541 193.544 93.1053 134.269 93.1053C74.9942 93.1052 26.943 45.054 26.9429 -14.2208C26.9429 -73.4957 74.9942 -121.548 134.269 -121.548C193.544 -121.548 241.596 -73.4958 241.596 -14.2208Z" stroke="#AC836C"/>
<path d="M310.914 486.404C310.913 545.679 262.861 593.73 203.586 593.73C144.312 593.73 96.2604 545.679 96.2603 486.404C96.2603 427.129 144.312 379.077 203.586 379.077C262.861 379.077 310.914 427.129 310.914 486.404Z" stroke="#AC836C"/>
</svg>
